<?xml version="1.0" encoding="UTF-8"?>
<svg xmlns="http://www.w3.org/2000/svg" viewBox="0 0 1159.17 487.56">
  <defs>
    <style>
      .cls-1, .cls-2, .cls-3, .cls-4, .cls-5, .cls-6, .cls-7, .cls-8, .cls-9, .cls-10, .cls-11, .cls-12, .cls-13 {
        stroke-miterlimit: 10;
      }

      .cls-1, .cls-2, .cls-3, .cls-4, .cls-5, .cls-6, .cls-7, .cls-8, .cls-9, .cls-12 {
        fill: none;
      }

      .cls-1, .cls-3, .cls-6, .cls-7, .cls-12 {
        stroke: #231815;
      }

      .cls-1, .cls-4, .cls-8, .cls-10 {
        stroke-width: 2px;
      }

      .cls-2 {
        stroke: #040000;
      }

      .cls-2, .cls-5, .cls-13 {
        stroke-width: 3px;
      }

      .cls-3 {
        opacity: .15;
      }

      .cls-14, .cls-10 {
        fill: #094;
      }

      .cls-14, .cls-15, .cls-16, .cls-17 {
        stroke-width: 0px;
      }

      .cls-4, .cls-9, .cls-10, .cls-11 {
        stroke: #094;
      }

      .cls-5, .cls-8 {
        stroke: #e60012;
      }

      .cls-6 {
        stroke-dasharray: 0 0 6.07 6.07;
      }

      .cls-7 {
        stroke-dasharray: 0 0 5.93 5.93;
      }

      .cls-11, .cls-15 {
        fill: #fff;
      }

      .cls-18 {
        opacity: .36;
      }

      .cls-16 {
        fill: #231815;
      }

      .cls-13 {
        fill: #5bc4f0;
        stroke: #5bc4f0;
      }

      .cls-17 {
        fill: #040000;
      }
    </style>
  </defs>
  <g id="_圆_直线" data-name="圆+直线">
    <g>
      <line class="cls-2" x1="557.18" y1="242.61" x2="2.64" y2="242.61"/>
      <polygon class="cls-17" points="552.43 235.64 578.45 242.61 552.43 249.58 552.43 235.64"/>
    </g>
    <path class="cls-16" d="M591.23,249.56l4.89-7.47-4.43-6.85h3.38l2.87,4.6,2.81-4.6h3.35l-4.45,6.95,4.89,7.36h-3.49l-3.17-4.95-3.18,4.95h-3.47Z"/>
    <circle class="cls-1" cx="888.4" cy="243.89" r="188.9"/>
    <g class="cls-18">
      <g>
        <line class="cls-12" x1="651.31" y1="243.89" x2="654.31" y2="243.89"/>
        <line class="cls-6" x1="660.37" y1="243.89" x2="1118.38" y2="243.89"/>
        <line class="cls-12" x1="1121.41" y1="243.89" x2="1124.41" y2="243.89"/>
        <polygon class="cls-16" points="1121.1 247.98 1120.42 247.24 1124.03 243.89 1120.42 240.53 1121.1 239.8 1125.5 243.89 1121.1 247.98"/>
      </g>
    </g>
    <g class="cls-18">
      <g>
        <line class="cls-12" x1="888.4" y1="1.29" x2="888.4" y2="4.29"/>
        <line class="cls-7" x1="888.4" y1="10.22" x2="888.4" y2="481.6"/>
        <line class="cls-12" x1="888.4" y1="484.56" x2="888.4" y2="487.56"/>
        <polygon class="cls-16" points="884.31 4.61 885.05 5.29 888.4 1.68 891.76 5.29 892.49 4.61 888.4 .21 884.31 4.61"/>
      </g>
    </g>
    <circle class="cls-3" cx="888.4" cy="243.89" r="226.68"/>
    <circle class="cls-3" cx="888.4" cy="243.89" r="151.12"/>
    <g>
      <line class="cls-1" x1="500.21" y1="233.55" x2="500.21" y2="186.16"/>
      <polygon class="cls-16" points="505.4 190.1 500.21 187.89 495.03 190.1 500.21 177.81 505.4 190.1"/>
    </g>
    <g>
      <line class="cls-1" x1="500.21" y1="255.62" x2="500.21" y2="303.01"/>
      <polygon class="cls-16" points="495.03 299.08 500.21 301.28 505.4 299.08 500.21 311.36 495.03 299.08"/>
    </g>
    <g>
      <path class="cls-16" d="M492.27,164.74v-3.72h-3.75v-2.57h3.75v-3.72h2.5v3.72h3.76v2.57h-3.76v3.72h-2.5Z"/>
      <path class="cls-16" d="M504.58,166.8v-6.03l-5.24-8.29h3.39l3.37,5.66,3.3-5.66h3.33l-5.26,8.31v6.01h-2.88Z"/>
    </g>
    <g>
      <path class="cls-16" d="M487.95,334.49v-2.05h11.12v2.05h-11.12Z"/>
      <path class="cls-16" d="M504.32,338.65v-6.03l-5.24-8.29h3.39l3.37,5.66,3.3-5.66h3.33l-5.26,8.31v6.01h-2.88Z"/>
    </g>
  </g>
  <g id="_轨迹" data-name="轨迹">
    <polyline class="cls-5" points="4.12 243.42 3.8 184.9 188.45 242.61 63.92 299.3 63.92 185.92 265.45 242.61 140.45 299.3 140.92 185.92 347.12 241.68 214.57 299.3 214.57 185.92 418.96 242.61"/>
    <polyline class="cls-8" points="888.4 54.98 888.4 17.2 968.06 72.56 926.64 97.64 946.37 24.02 1009.62 99 963.86 112.92 1001.65 47.47 1043.22 135.62"/>
    <circle class="cls-13" cx="3.8" cy="184.84" r="2.3"/>
    <circle class="cls-13" cx="63.94" cy="184.84" r="2.3"/>
    <circle class="cls-13" cx="140.64" cy="184.84" r="2.3"/>
    <circle class="cls-13" cx="214.51" cy="184.84" r="2.3"/>
    <circle class="cls-13" cx="63.94" cy="299.61" r="2.3"/>
    <circle class="cls-13" cx="140.64" cy="299.61" r="2.3"/>
    <circle class="cls-13" cx="214.51" cy="299.61" r="2.3"/>
    <circle class="cls-13" cx="926.64" cy="97.64" r="2.3"/>
    <circle class="cls-13" cx="1002.19" cy="48.54" r="2.3"/>
    <circle class="cls-13" cx="946.37" cy="24.02" r="2.3"/>
    <circle class="cls-13" cx="888.4" cy="17.2" r="2.3"/>
    <circle class="cls-13" cx="963.69" cy="113.58" r="2.3"/>
  </g>
  <g id="_标注" data-name="标注">
    <g>
      <line class="cls-15" x1="1043.76" y1="136.08" x2="1078.53" y2="188.56"/>
      <g>
        <line class="cls-1" x1="1043.76" y1="136.08" x2="1071.68" y2="178.22"/>
        <polygon class="cls-16" points="1066.76 178.16 1078.53 188.56 1073.54 173.66 1066.76 178.16"/>
      </g>
    </g>
    <g>
      <line class="cls-15" x1="1085.93" y1="105.44" x2="1000.45" y2="166.44"/>
      <g>
        <line class="cls-12" x1="1080.88" y1="109.05" x2="1005.49" y2="162.84"/>
        <polygon class="cls-16" points="1078.57 108.2 1085.93 105.44 1080.93 111.51 1078.57 108.2"/>
        <polygon class="cls-16" points="1005.44 160.38 1000.45 166.44 1007.81 163.69 1005.44 160.38"/>
      </g>
    </g>
    <g>
      <path class="cls-9" d="M899.21,44.25c8.39-.94,19.27-.62,29.62,4.49"/>
      <polygon class="cls-14" points="901.65 46.89 890.48 45.76 900.71 41.15 901.65 46.89"/>
      <polygon class="cls-14" points="925.58 50.28 936.34 53.45 928.6 45.32 925.58 50.28"/>
    </g>
    <path class="cls-14" d="M915.72,39.8c-.49.42-.96.71-1.41.88-.45.17-.94.26-1.45.26-.85,0-1.51-.21-1.97-.63-.46-.42-.69-.95-.69-1.6,0-.38.09-.73.26-1.04.17-.31.4-.57.68-.76.28-.19.6-.33.95-.43.26-.07.65-.13,1.17-.2,1.06-.13,1.85-.28,2.35-.45,0-.18,0-.29,0-.34,0-.54-.12-.92-.37-1.13-.34-.3-.84-.45-1.5-.45-.62,0-1.08.11-1.37.33-.3.22-.51.6-.66,1.15l-1.29-.18c.12-.55.31-1,.58-1.34.27-.34.66-.6,1.16-.78.51-.18,1.1-.27,1.77-.27s1.2.08,1.62.23.72.35.92.59c.2.24.33.54.41.9.04.22.07.63.07,1.21v1.76c0,1.23.03,2,.08,2.33.06.32.17.64.33.93h-1.38c-.14-.27-.22-.59-.26-.96ZM915.6,36.86c-.48.2-1.2.36-2.15.5-.54.08-.92.17-1.15.26-.22.1-.4.24-.52.43-.12.19-.18.4-.18.63,0,.35.13.64.4.88.27.23.66.35,1.17.35s.96-.11,1.35-.33c.4-.22.69-.53.87-.91.14-.3.21-.74.21-1.32v-.48Z"/>
    <line class="cls-10" x1="995.76" y1="42.53" x2="1006.34" y2="48.54"/>
    <line class="cls-10" x1="976.52" y1="77.21" x2="987.1" y2="83.22"/>
    <g>
      <line class="cls-14" x1="997.6" y1="46.53" x2="979.32" y2="77.31"/>
      <g>
        <line class="cls-9" x1="994.43" y1="51.87" x2="982.49" y2="71.97"/>
        <polygon class="cls-14" points="991.97 52.02 997.6 46.53 995.47 54.1 991.97 52.02"/>
        <polygon class="cls-14" points="981.45 69.74 979.32 77.31 984.94 71.82 981.45 69.74"/>
      </g>
    </g>
    <g>
      <path class="cls-14" d="M969.71,58.47h-1.22v-10.74h1.32v3.83c.56-.7,1.27-1.05,2.13-1.05.48,0,.93.1,1.36.29.43.19.78.46,1.05.81.28.35.49.77.65,1.26s.23,1.02.23,1.58c0,1.33-.33,2.36-.99,3.09-.66.73-1.45,1.09-2.37,1.09s-1.64-.38-2.16-1.15v.97ZM969.7,54.52c0,.93.13,1.61.38,2.02.42.68.98,1.02,1.68,1.02.58,0,1.07-.25,1.49-.75.42-.5.63-1.25.63-2.24s-.2-1.77-.6-2.25c-.4-.48-.89-.73-1.46-.73s-1.07.25-1.49.75c-.42.5-.63,1.22-.63,2.17Z"/>
      <path class="cls-14" d="M975.85,58.65l3.11-11.1h1.05l-3.11,11.1h-1.06Z"/>
      <path class="cls-14" d="M987.57,57.2v1.27h-7.1c0-.32.04-.62.15-.92.18-.48.47-.96.87-1.43.4-.47.97-1.01,1.73-1.63,1.17-.96,1.96-1.71,2.37-2.27.41-.56.62-1.09.62-1.59s-.19-.96-.56-1.32c-.37-.36-.86-.54-1.46-.54-.63,0-1.14.19-1.52.57s-.57.91-.58,1.58l-1.36-.14c.09-1.01.44-1.78,1.05-2.31.61-.53,1.42-.79,2.44-.79s1.85.29,2.45.86c.6.57.9,1.28.9,2.12,0,.43-.09.85-.26,1.27s-.47.85-.88,1.31c-.41.46-1.08,1.09-2.03,1.89-.79.66-1.3,1.11-1.52,1.35-.22.24-.41.48-.56.71h5.27Z"/>
    </g>
    <g>
      <path class="cls-16" d="M1080.52,207.08l4.89-7.47-4.43-6.85h3.38l2.87,4.6,2.81-4.6h3.35l-4.45,6.95,4.89,7.36h-3.49l-3.17-4.95-3.18,4.95h-3.47Z"/>
      <path class="cls-16" d="M1100.19,200.42h-1.6v-3.09c0-.65-.03-1.08-.1-1.27s-.18-.34-.33-.45c-.15-.11-.34-.16-.55-.16-.28,0-.53.08-.75.23-.22.15-.37.35-.45.6-.08.25-.12.71-.12,1.39v2.74h-1.6v-6.05h1.49v.89c.53-.68,1.19-1.02,1.99-1.02.35,0,.67.06.97.19s.51.29.66.49c.15.2.25.42.31.67.06.25.09.61.09,1.08v3.76Z"/>
    </g>
    <g>
      <path class="cls-16" d="M1097.78,103.38v-3.72h-3.75v-2.57h3.75v-3.72h2.5v3.72h3.76v2.57h-3.76v3.72h-2.5Z"/>
      <path class="cls-16" d="M1110.09,105.44v-6.03l-5.24-8.29h3.39l3.37,5.66,3.3-5.66h3.33l-5.26,8.31v6.01h-2.88Z"/>
      <path class="cls-16" d="M1124.56,98.78h-1.6v-3.09c0-.65-.03-1.08-.1-1.27s-.18-.34-.33-.45c-.15-.11-.34-.16-.55-.16-.28,0-.53.08-.75.23-.22.15-.37.35-.45.6-.08.25-.12.71-.12,1.39v2.74h-1.6v-6.05h1.49v.89c.53-.68,1.19-1.02,1.99-1.02.35,0,.67.06.97.19.29.13.51.29.66.49.15.2.25.42.31.67.06.25.09.61.09,1.08v3.76Z"/>
    </g>
    <g>
      <path class="cls-16" d="M968.44,177.42v-2.05h11.12v2.05h-11.12Z"/>
      <path class="cls-16" d="M984.82,181.58v-6.03l-5.24-8.29h3.39l3.37,5.66,3.3-5.66h3.33l-5.26,8.31v6.01h-2.88Z"/>
      <path class="cls-16" d="M999.28,174.92h-1.6v-3.09c0-.65-.04-1.08-.1-1.27s-.18-.34-.33-.45c-.15-.11-.34-.16-.56-.16-.28,0-.53.08-.75.23-.22.15-.37.35-.45.6-.08.25-.12.71-.12,1.39v2.74h-1.6v-6.05h1.49v.89c.53-.68,1.19-1.02,1.99-1.02.35,0,.68.06.97.19.29.13.51.29.66.49.15.2.25.42.31.67.06.25.09.61.09,1.08v3.76Z"/>
    </g>
    <path class="cls-14" d="M230.59,229.6h-1.22v-10.74h1.32v3.83c.56-.7,1.27-1.05,2.13-1.05.48,0,.93.1,1.36.29.43.19.78.46,1.05.81.28.35.49.77.65,1.26s.23,1.02.23,1.58c0,1.33-.33,2.36-.99,3.09-.66.73-1.45,1.09-2.37,1.09s-1.64-.38-2.16-1.15v.97ZM230.57,225.65c0,.93.13,1.61.38,2.02.42.68.98,1.02,1.68,1.02.58,0,1.07-.25,1.49-.75.42-.5.63-1.25.63-2.24s-.2-1.77-.6-2.25c-.4-.48-.89-.73-1.46-.73s-1.07.25-1.49.75c-.42.5-.63,1.22-.63,2.17Z"/>
    <path class="cls-14" d="M84.85,226.58v-.98c-.49.77-1.22,1.16-2.18,1.16-.62,0-1.19-.17-1.71-.51-.52-.34-.92-.82-1.21-1.43-.29-.61-.43-1.32-.43-2.11s.13-1.48.39-2.11c.26-.63.65-1.12,1.16-1.45.52-.34,1.1-.5,1.74-.5.47,0,.89.1,1.25.3.37.2.66.46.89.77v-3.85h1.31v10.74h-1.22ZM80.68,222.7c0,1,.21,1.74.63,2.23.42.49.92.74,1.49.74s1.07-.24,1.47-.71c.4-.47.6-1.19.6-2.16,0-1.06-.21-1.85-.62-2.34s-.92-.75-1.52-.75-1.08.24-1.47.72-.59,1.23-.59,2.26Z"/>
    <line class="cls-11" x1="4.12" y1="239.36" x2="4.12" y2="262.52"/>
    <line class="cls-11" x1="63.94" y1="239.36" x2="63.94" y2="262.52"/>
    <g>
      <line class="cls-9" x1="13.9" y1="254.05" x2="53.97" y2="254.05"/>
      <polygon class="cls-14" points="15.88 256.95 5.04 254.05 15.88 251.14 15.88 256.95"/>
      <polygon class="cls-14" points="51.99 256.95 62.83 254.05 51.99 251.14 51.99 256.95"/>
    </g>
    <line class="cls-11" x1="210.06" y1="183.85" x2="235.09" y2="183.85"/>
    <line class="cls-11" x1="210.06" y1="301.61" x2="235.09" y2="301.61"/>
    <g>
      <line class="cls-9" x1="224.18" y1="193.37" x2="224.18" y2="291.59"/>
      <polygon class="cls-14" points="221.27 195.36 224.18 184.52 227.08 195.36 221.27 195.36"/>
      <polygon class="cls-14" points="221.27 289.61 224.18 300.45 227.08 289.61 221.27 289.61"/>
    </g>
    <line class="cls-11" x1="4.12" y1="219.27" x2="4.12" y2="241.81"/>
    <line class="cls-11" x1="191.74" y1="218.88" x2="191.74" y2="243.94"/>
    <g>
      <line class="cls-9" x1="13.9" y1="230.83" x2="181.59" y2="230.83"/>
      <polygon class="cls-14" points="15.88 233.74 5.04 230.83 15.88 227.93 15.88 233.74"/>
      <polygon class="cls-14" points="179.6 233.74 190.45 230.83 179.6 227.93 179.6 233.74"/>
    </g>
    <path class="cls-14" d="M33.89,267.41c-.49.42-.96.71-1.41.88-.45.17-.94.26-1.45.26-.85,0-1.51-.21-1.97-.63-.46-.42-.69-.95-.69-1.6,0-.38.09-.73.26-1.04.17-.31.4-.57.68-.76.28-.19.6-.33.95-.43.26-.07.65-.13,1.17-.2,1.06-.13,1.85-.28,2.35-.45,0-.18,0-.29,0-.34,0-.54-.12-.92-.37-1.13-.34-.3-.84-.45-1.5-.45-.62,0-1.08.11-1.37.33-.3.22-.51.6-.66,1.15l-1.29-.18c.12-.55.31-1,.58-1.34.27-.34.66-.6,1.16-.78.51-.18,1.1-.27,1.77-.27s1.2.08,1.62.23.72.35.92.59c.2.24.33.54.41.9.04.22.07.63.07,1.21v1.76c0,1.23.03,2,.08,2.33.06.32.17.64.33.93h-1.38c-.14-.27-.22-.59-.26-.96ZM33.78,264.47c-.48.2-1.2.36-2.15.5-.54.08-.93.17-1.15.26-.22.1-.4.24-.52.43-.12.19-.18.4-.18.63,0,.35.13.64.4.88.27.23.66.35,1.17.35s.96-.11,1.35-.33c.4-.22.69-.53.87-.91.14-.3.21-.74.21-1.32v-.48Z"/>
    <line class="cls-4" x1="888.4" y1="38.58" x2="888.4" y2="72.06"/>
    <line class="cls-4" x1="940.62" y1="45.54" x2="936.34" y2="61.37"/>
    <line class="cls-4" x1="969.43" y1="71.01" x2="962.56" y2="85.9"/>
    <g>
      <path class="cls-9" d="M895.42,65.25c12.08,8.09,31.41,16.68,56.47,11.76.69-.14,1.37-.28,2.05-.43"/>
      <polygon class="cls-14" points="895.38 68.69 888.32 59.96 898.8 63.99 895.38 68.69"/>
      <polygon class="cls-14" points="952.77 79.82 962.48 74.2 951.26 74.21 952.77 79.82"/>
    </g>
    <path class="cls-14" d="M917.11,90.28v-.98c-.49.77-1.22,1.16-2.18,1.16-.62,0-1.19-.17-1.71-.51-.52-.34-.92-.82-1.21-1.43-.29-.61-.43-1.32-.43-2.11s.13-1.48.39-2.11c.26-.63.65-1.12,1.17-1.45.52-.34,1.1-.5,1.74-.5.47,0,.89.1,1.25.3.37.2.66.46.89.77v-3.85h1.31v10.74h-1.22ZM912.94,86.4c0,1,.21,1.74.63,2.23.42.49.92.74,1.49.74s1.07-.24,1.47-.71c.4-.47.6-1.19.6-2.16,0-1.06-.21-1.85-.62-2.34s-.92-.75-1.52-.75-1.08.24-1.47.72c-.39.48-.59,1.23-.59,2.26Z"/>
    <circle class="cls-16" cx="1043.56" cy="135.62" r="3.97"/>
  </g>
</svg>