<?xml version="1.0" encoding="UTF-8"?>
<svg xmlns="http://www.w3.org/2000/svg" viewBox="0 0 999.75 487.56">
  <defs>
    <style>
      .cls-1, .cls-2, .cls-3, .cls-4, .cls-5, .cls-6, .cls-7, .cls-8, .cls-9, .cls-10, .cls-11, .cls-12 {
        stroke-miterlimit: 10;
      }

      .cls-1, .cls-2, .cls-3, .cls-4, .cls-5, .cls-6, .cls-8, .cls-10, .cls-12 {
        fill: none;
      }

      .cls-1, .cls-3, .cls-6, .cls-8, .cls-12 {
        stroke: #231815;
      }

      .cls-1, .cls-4, .cls-7, .cls-9 {
        stroke-width: 2px;
      }

      .cls-2 {
        stroke: #040000;
      }

      .cls-2, .cls-5 {
        stroke-width: 3px;
      }

      .cls-3 {
        opacity: .15;
      }

      .cls-13 {
        fill: #094;
      }

      .cls-13, .cls-14, .cls-15, .cls-16 {
        stroke-width: 0px;
      }

      .cls-4, .cls-7, .cls-9, .cls-10, .cls-11 {
        stroke: #094;
      }

      .cls-5 {
        stroke: #e60012;
      }

      .cls-6 {
        stroke-dasharray: 0 0 6.07 6.07;
      }

      .cls-7, .cls-9, .cls-11, .cls-14 {
        fill: #fff;
      }

      .cls-8 {
        stroke-dasharray: 0 0 5.93 5.93;
      }

      .cls-9 {
        stroke-dasharray: 0 3;
      }

      .cls-17 {
        opacity: .36;
      }

      .cls-15 {
        fill: #231815;
      }

      .cls-16 {
        fill: #040000;
      }
    </style>
  </defs>
  <g id="_圆_直线" data-name="圆+直线">
    <g>
      <line class="cls-2" x1="373.77" y1="242.61" x2=".5" y2="242.61"/>
      <polygon class="cls-16" points="369.01 235.64 395.03 242.61 369.01 249.58 369.01 235.64"/>
    </g>
    <path class="cls-15" d="M401.03,251.71l4.89-7.47-4.43-6.85h3.38l2.87,4.6,2.81-4.6h3.35l-4.45,6.95,4.89,7.36h-3.49l-3.17-4.95-3.18,4.95h-3.47Z"/>
    <circle class="cls-1" cx="728.98" cy="243.89" r="188.9"/>
    <g class="cls-17">
      <g>
        <line class="cls-12" x1="491.89" y1="243.89" x2="494.89" y2="243.89"/>
        <line class="cls-6" x1="500.95" y1="243.89" x2="958.96" y2="243.89"/>
        <line class="cls-12" x1="962" y1="243.89" x2="965" y2="243.89"/>
        <polygon class="cls-15" points="961.68 247.98 961 247.24 964.61 243.89 961 240.53 961.68 239.8 966.08 243.89 961.68 247.98"/>
      </g>
    </g>
    <g class="cls-17">
      <g>
        <line class="cls-12" x1="728.98" y1="1.29" x2="728.98" y2="4.29"/>
        <line class="cls-8" x1="728.98" y1="10.22" x2="728.98" y2="481.6"/>
        <line class="cls-12" x1="728.98" y1="484.56" x2="728.98" y2="487.56"/>
        <polygon class="cls-15" points="724.9 4.61 725.63 5.29 728.98 1.68 732.34 5.29 733.07 4.61 728.98 .21 724.9 4.61"/>
      </g>
    </g>
    <circle class="cls-3" cx="728.98" cy="243.89" r="226.68"/>
    <circle class="cls-3" cx="728.98" cy="243.89" r="151.12"/>
    <g>
      <g>
        <line class="cls-1" x1="337.79" y1="233.55" x2="337.79" y2="186.16"/>
        <polygon class="cls-15" points="342.98 190.1 337.79 187.89 332.61 190.1 337.79 177.81 342.98 190.1"/>
      </g>
      <g>
        <line class="cls-1" x1="337.79" y1="255.62" x2="337.79" y2="303.01"/>
        <polygon class="cls-15" points="332.61 299.08 337.79 301.28 342.98 299.08 337.79 311.36 332.61 299.08"/>
      </g>
      <g>
        <path class="cls-15" d="M329.85,164.74v-3.72h-3.75v-2.57h3.75v-3.72h2.5v3.72h3.76v2.57h-3.76v3.72h-2.5Z"/>
        <path class="cls-15" d="M342.16,166.8v-6.03l-5.24-8.29h3.39l3.37,5.66,3.3-5.66h3.33l-5.26,8.31v6.01h-2.88Z"/>
      </g>
      <g>
        <path class="cls-15" d="M325.53,334.49v-2.05h11.12v2.05h-11.12Z"/>
        <path class="cls-15" d="M341.9,338.65v-6.03l-5.24-8.29h3.39l3.37,5.66,3.3-5.66h3.33l-5.26,8.31v6.01h-2.88Z"/>
      </g>
    </g>
  </g>
  <g id="_轨迹" data-name="轨迹">
    <g>
      <path class="cls-5" d="M16.76,186.49c8.66,0,15.69,8.69,15.69,19.4,0,5.22-1.67,9.97-4.38,13.45,0,0-10.77,14.45-20.55,19.73l-6.66,3.53"/>
      <path class="cls-5" d="M50.48,298.73c-8.66,0-15.69-8.69-15.69-19.4,0-5.22,1.67-9.97,4.38-13.45,0,0,10.77-14.45,20.55-19.73l6.66-3.53"/>
      <path class="cls-5" d="M49.65,298.73c8.66,0,15.69-8.69,15.69-19.4,0-5.22-1.67-9.97-4.38-13.45,0,0-10.77-14.45-20.55-19.73l-6.66-3.53h-.24s-6.66-3.53-6.66-3.53c-9.78-5.28-20.55-19.73-20.55-19.73-2.71-3.49-4.38-8.23-4.38-13.45,0-10.72,7.02-19.4,15.69-19.4"/>
    </g>
    <g>
      <path class="cls-5" d="M83.2,186.49c-8.66,0-15.69,8.69-15.69,19.4,0,5.22,1.67,9.97,4.38,13.45,0,0,10.77,14.45,20.55,19.73l6.66,3.53h.24s6.66,3.53,6.66,3.53c9.78,5.28,20.55,19.73,20.55,19.73,2.71,3.49,4.38,8.23,4.38,13.45,0,10.72-7.02,19.4-15.69,19.4"/>
      <path class="cls-5" d="M82.36,186.49c8.66,0,15.69,8.69,15.69,19.4,0,5.22-1.67,9.97-4.38,13.45,0,0-10.77,14.45-20.55,19.73l-6.66,3.53"/>
      <path class="cls-5" d="M116.08,298.73c-8.66,0-15.69-8.69-15.69-19.4,0-5.22,1.67-9.97,4.38-13.45,0,0,10.77-14.45,20.55-19.73l6.66-3.53"/>
    </g>
    <g>
      <path class="cls-5" d="M147.89,186.49c8.66,0,15.69,8.69,15.69,19.4,0,5.22-1.67,9.97-4.38,13.45,0,0-10.77,14.45-20.55,19.73l-6.66,3.53"/>
      <path class="cls-5" d="M181.61,298.73c-8.66,0-15.69-8.69-15.69-19.4,0-5.22,1.67-9.97,4.38-13.45,0,0,10.77-14.45,20.55-19.73l6.66-3.53"/>
      <path class="cls-5" d="M180.78,298.73c8.66,0,15.69-8.69,15.69-19.4,0-5.22-1.67-9.97-4.38-13.45,0,0-10.77-14.45-20.55-19.73l-6.66-3.53h-.24s-6.66-3.53-6.66-3.53c-9.78-5.28-20.55-19.73-20.55-19.73-2.71-3.49-4.38-8.23-4.38-13.45,0-10.72,7.02-19.4,15.69-19.4"/>
    </g>
    <g>
      <path class="cls-5" d="M214.33,186.49c-8.66,0-15.69,8.69-15.69,19.4,0,5.22,1.67,9.97,4.38,13.45,0,0,10.77,14.45,20.55,19.73l6.66,3.53h.24s6.66,3.53,6.66,3.53c9.78,5.28,20.55,19.73,20.55,19.73,2.71,3.49,4.38,8.23,4.38,13.45,0,10.72-7.02,19.4-15.69,19.4"/>
      <path class="cls-5" d="M213.49,186.49c8.66,0,15.69,8.69,15.69,19.4,0,5.22-1.67,9.97-4.38,13.45,0,0-10.77,14.45-20.55,19.73l-6.66,3.53"/>
      <path class="cls-5" d="M247.21,298.73c-8.66,0-15.69-8.69-15.69-19.4,0-5.22,1.67-9.97,4.38-13.45,0,0,10.77-14.45,20.55-19.73l6.66-3.53"/>
    </g>
    <g>
      <path class="cls-5" d="M744.85,18.27c5.48.84,9.11,7.15,8.1,14.11-.49,3.39-1.99,6.31-4.04,8.31,0,0-8.17,8.34-14.86,10.82l-4.55,1.65"/>
      <path class="cls-5" d="M755.62,94.38c-5.48-.84-9.11-7.15-8.1-14.11.49-3.39,1.99-6.31,4.04-8.31,0,0,8.17-8.34,14.86-10.82l4.55-1.65"/>
      <path class="cls-5" d="M755.09,94.3c5.48.84,10.74-4.12,11.75-11.08.49-3.39-.12-6.63-1.51-9.16,0,0-5.45-10.42-11.14-14.79l-3.88-2.94-.15-.02-3.88-2.94c-5.69-4.37-11.14-14.79-11.14-14.79-1.39-2.53-2-5.77-1.51-9.16,1.01-6.96,6.27-11.92,11.75-11.08"/>
    </g>
    <g>
      <path class="cls-5" d="M792.17,27.6c5.25,1.79,7.71,8.64,5.49,15.31-1.08,3.25-3.07,5.86-5.44,7.47,0,0-9.51,6.77-16.53,8.04l-4.77.82"/>
      <path class="cls-5" d="M789.39,104.41c-5.25-1.79-7.71-8.64-5.49-15.31,1.08-3.25,3.07-5.86,5.44-7.47,0,0,9.51-6.77,16.53-8.04l4.77-.82"/>
      <path class="cls-5" d="M788.89,104.24c5.25,1.79,11.3-2.17,13.52-8.84,1.08-3.25,1.05-6.55.13-9.28,0,0-3.54-11.21-8.37-16.52l-3.31-3.57-.15-.05-3.31-3.57c-4.83-5.31-8.37-16.52-8.37-16.52-.92-2.73-.95-6.03.13-9.28,2.22-6.67,8.27-10.63,13.52-8.84"/>
    </g>
    <g>
      <path class="cls-5" d="M838.21,47.21c4.67,2.95,5.42,10.1,1.67,15.97-1.83,2.86-4.38,4.89-7.07,5.87,0,0-10.85,4.24-17.97,3.8l-4.83-.34"/>
      <path class="cls-5" d="M817.13,120.16c-4.67-2.95-5.42-10.1-1.67-15.97,1.83-2.86,4.38-4.89,7.07-5.87,0,0,10.85-4.24,17.97-3.8l4.83.34"/>
      <path class="cls-5" d="M816.68,119.87c4.67,2.95,11.49.59,15.24-5.28,1.83-2.86,2.59-6.03,2.34-8.86,0,0-.75-11.58-4.17-17.8l-2.36-4.2-.13-.08-2.36-4.2c-3.42-6.22-4.17-17.8-4.17-17.8-.24-2.83.52-6,2.34-8.86,3.75-5.87,10.57-8.23,15.24-5.28"/>
    </g>
    <g>
      <path class="cls-5" d="M842.28,141.94c-3.95-3.74-3.35-10.82,1.33-15.8,2.28-2.43,5.12-3.92,7.88-4.37,0,0,11.22-2.07,17.98-.31l4.58,1.23"/>
      <path class="cls-5" d="M875.97,75.15c3.95,3.74,3.35,10.82-1.33,15.8-2.28,2.43-5.12,3.92-7.88,4.37,0,0-11.22,2.07-17.98.31l-4.58-1.23"/>
      <path class="cls-5" d="M876.35,75.51c-3.95-3.74-10.94-2.73-15.63,2.26-2.28,2.43-3.6,5.36-3.88,8.15,0,0-1.41,11.37.74,18.05l1.49,4.52.11.1,1.49,4.52c2.15,6.68.74,18.05.74,18.05-.29,2.8-1.6,5.72-3.88,8.15-4.68,4.99-11.68,6-15.63,2.26"/>
    </g>
  </g>
  <g id="_标注" data-name="标注">
    <g>
      <line class="cls-14" x1="876.21" y1="124.71" x2="916.72" y2="172.89"/>
      <g>
        <line class="cls-1" x1="876.21" y1="124.71" x2="908.74" y2="163.4"/>
        <polygon class="cls-15" points="903.84 163.89 916.72 172.89 910.07 158.66 903.84 163.89"/>
      </g>
    </g>
    <g>
      <path class="cls-15" d="M918.34,189.58l5.51-7.03-3.84-7.2,3.37.29,2.47,4.83,3.19-4.34,3.34.28-5.03,6.55,4.25,7.75-3.47-.3-2.74-5.2-3.59,4.66-3.45-.29Z"/>
      <path class="cls-15" d="M938.51,184.61l-1.59-.14.26-3.08c.06-.65.06-1.07,0-1.27-.05-.2-.15-.36-.29-.47-.14-.12-.32-.19-.54-.21-.28-.02-.53.03-.76.16-.23.13-.4.32-.5.56-.1.24-.18.7-.24,1.38l-.23,2.73-1.59-.14.51-6.02,1.48.13-.08.88c.58-.64,1.27-.92,2.07-.85.35.03.67.12.95.27.28.15.49.33.62.54.13.21.22.44.25.7.04.25.04.61,0,1.08l-.32,3.74Z"/>
    </g>
    <g>
      <path class="cls-15" d="M922.97,86.93v-3.72h-3.75v-2.57h3.75v-3.72h2.5v3.72h3.76v2.57h-3.76v3.72h-2.5Z"/>
      <path class="cls-15" d="M935.29,88.99v-6.03l-5.24-8.29h3.39l3.37,5.66,3.3-5.66h3.33l-5.26,8.31v6.01h-2.88Z"/>
      <path class="cls-15" d="M949.75,82.33h-1.6v-3.09c0-.65-.03-1.08-.1-1.27s-.18-.34-.33-.45c-.15-.11-.34-.16-.56-.16-.28,0-.53.08-.75.23-.22.15-.37.35-.45.6-.08.25-.12.71-.12,1.39v2.74h-1.6v-6.05h1.49v.89c.53-.68,1.19-1.02,1.99-1.02.35,0,.67.06.97.19.29.13.51.29.66.49.15.2.25.42.31.67.06.25.09.61.09,1.08v3.76Z"/>
    </g>
    <g>
      <path class="cls-15" d="M811.72,168.73v-2.05h11.12v2.05h-11.12Z"/>
      <path class="cls-15" d="M828.1,172.89v-6.03l-5.24-8.29h3.39l3.37,5.66,3.3-5.66h3.33l-5.26,8.31v6.01h-2.88Z"/>
      <path class="cls-15" d="M842.56,166.23h-1.6v-3.09c0-.65-.03-1.08-.1-1.27s-.18-.34-.33-.45c-.15-.11-.34-.16-.55-.16-.28,0-.53.08-.75.23-.22.15-.37.35-.45.6-.08.25-.12.71-.12,1.39v2.74h-1.6v-6.05h1.49v.89c.53-.68,1.19-1.02,1.99-1.02.35,0,.68.06.97.19.29.13.51.29.66.49.15.2.25.42.31.67.06.25.09.61.09,1.08v3.76Z"/>
    </g>
    <path class="cls-13" d="M281.89,238.49h-1.22v-10.74h1.32v3.83c.56-.7,1.27-1.05,2.13-1.05.48,0,.93.1,1.36.29.43.19.78.46,1.05.81.28.35.49.77.65,1.26s.23,1.02.23,1.58c0,1.33-.33,2.36-.99,3.09-.66.73-1.45,1.09-2.37,1.09s-1.64-.38-2.16-1.15v.97ZM281.88,234.54c0,.93.13,1.61.38,2.02.42.68.98,1.02,1.68,1.02.58,0,1.07-.25,1.49-.75.42-.5.63-1.25.63-2.24s-.2-1.77-.6-2.25c-.4-.48-.89-.73-1.46-.73s-1.07.25-1.49.75c-.42.5-.63,1.22-.63,2.17Z"/>
    <line class="cls-7" x1="49.79" y1="290.39" x2="49.79" y2="310.36"/>
    <line class="cls-4" x1="66.65" y1="310.08" x2="66.65" y2="290"/>
    <g>
      <line class="cls-10" x1="75.72" y1="305.39" x2="87.64" y2="305.39"/>
      <polygon class="cls-13" points="77.7 308.29 66.86 305.39 77.7 302.48 77.7 308.29"/>
    </g>
    <line class="cls-7" x1="206.9" y1="185.34" x2="282.77" y2="185.34"/>
    <line class="cls-7" x1="206.9" y1="299.88" x2="282.77" y2="299.88"/>
    <g>
      <line class="cls-10" x1="274.49" y1="195.95" x2="274.49" y2="289.82"/>
      <polygon class="cls-13" points="271.59 197.93 274.49 187.09 277.4 197.93 271.59 197.93"/>
      <polygon class="cls-13" points="271.59 287.84 274.49 298.68 277.4 287.84 271.59 287.84"/>
    </g>
    <path class="cls-13" d="M56.66,319.63v-7.78h1.19v1.18c.3-.55.58-.92.84-1.09.26-.18.54-.26.85-.26.44,0,.9.14,1.35.42l-.45,1.22c-.32-.19-.64-.29-.97-.29-.29,0-.55.09-.78.26-.23.17-.39.41-.49.72-.15.47-.22.98-.22,1.54v4.07h-1.32Z"/>
    <circle class="cls-15" cx="876.44" cy="124.26" r="3.97"/>
    <g>
      <line class="cls-1" x1="850.36" y1="146.03" x2="907.74" y2="96.81"/>
      <polygon class="cls-15" points="855.12 147.32 840.95 154.11 849.82 141.14 855.12 147.32"/>
      <polygon class="cls-15" points="908.28 101.7 917.15 88.74 902.99 95.53 908.28 101.7"/>
    </g>
    <line class="cls-4" x1="822.07" y1="124.22" x2="798.66" y2="108.68"/>
    <line class="cls-4" x1="867.73" y1="63.64" x2="833.58" y2="42.32"/>
    <g>
      <line class="cls-13" x1="858.68" y1="57.82" x2="816.68" y2="120.16"/>
      <g>
        <line class="cls-10" x1="854.72" y1="63.7" x2="820.64" y2="114.28"/>
        <polygon class="cls-13" points="851.91 63.71 858.68 57.82 855.77 66.31 851.91 63.71"/>
        <polygon class="cls-13" points="819.6 111.67 816.68 120.16 823.46 114.26 819.6 111.67"/>
      </g>
    </g>
    <path class="cls-13" d="M848.73,91.57h-1.22v-10.74h1.32v3.83c.56-.7,1.27-1.05,2.13-1.05.48,0,.93.1,1.36.29.43.19.78.46,1.05.81.28.35.49.77.65,1.26s.23,1.02.23,1.58c0,1.33-.33,2.36-.99,3.09-.66.73-1.45,1.09-2.37,1.09s-1.64-.38-2.16-1.15v.97ZM848.71,87.63c0,.93.13,1.61.38,2.02.42.68.98,1.02,1.68,1.02.58,0,1.07-.25,1.49-.75.42-.5.63-1.25.63-2.24s-.2-1.77-.6-2.25c-.4-.48-.89-.73-1.46-.73s-1.07.25-1.49.75c-.42.5-.63,1.22-.63,2.17Z"/>
    <g>
      <line class="cls-14" x1="49.45" y1="305.39" x2="27.51" y2="305.39"/>
      <g>
        <line class="cls-10" x1="40.59" y1="305.39" x2="27.51" y2="305.39"/>
        <polygon class="cls-13" points="38.61 302.48 49.45 305.39 38.61 308.29 38.61 302.48"/>
      </g>
    </g>
    <line class="cls-11" x1="50.12" y1="305.39" x2="66.22" y2="305.39"/>
    <line class="cls-9" x1="49.86" y1="290" x2="49.86" y2="253.67"/>
    <line class="cls-9" x1="66.62" y1="289.12" x2="66.62" y2="242.61"/>
    <line class="cls-7" x1="754.81" y1="93.44" x2="751.42" y2="113.13"/>
    <line class="cls-4" x1="762.33" y1="115.01" x2="766.22" y2="95.31"/>
    <g>
      <line class="cls-14" x1="764.39" y1="108.06" x2="784.34" y2="113.86"/>
      <g>
        <line class="cls-10" x1="772.9" y1="110.54" x2="784.34" y2="113.86"/>
        <polygon class="cls-13" points="773.99 113.88 764.39 108.06 775.61 108.3 773.99 113.88"/>
      </g>
    </g>
    <path class="cls-13" d="M755.06,123.11v-7.78h1.19v1.18c.3-.55.58-.92.84-1.09.26-.18.54-.26.85-.26.44,0,.9.14,1.35.42l-.45,1.22c-.32-.19-.64-.29-.97-.29-.29,0-.55.09-.78.26-.23.17-.39.41-.49.72-.15.47-.22.98-.22,1.54v4.07h-1.32Z"/>
    <g>
      <line class="cls-14" x1="752.1" y1="105.9" x2="730.52" y2="101.95"/>
      <g>
        <line class="cls-10" x1="743.38" y1="104.31" x2="730.52" y2="101.95"/>
        <polygon class="cls-13" points="741.96 101.09 752.1 105.9 740.91 106.81 741.96 101.09"/>
      </g>
    </g>
    <line class="cls-11" x1="750.4" y1="105.59" x2="766.22" y2="108.54"/>
    <line class="cls-9" x1="754.79" y1="94.22" x2="759.96" y2="66.37"/>
    <line class="cls-9" x1="765.98" y1="96.43" x2="774.65" y2="58.15"/>
  </g>
</svg>