<?xml version="1.0" encoding="UTF-8"?>
<svg xmlns="http://www.w3.org/2000/svg" viewBox="0 0 1156.53 487.56">
  <defs>
    <style>
      .cls-1, .cls-2, .cls-3, .cls-4, .cls-5, .cls-6, .cls-7, .cls-8, .cls-9, .cls-10, .cls-11, .cls-12, .cls-13 {
        stroke-miterlimit: 10;
      }

      .cls-1, .cls-2, .cls-3, .cls-4, .cls-5, .cls-6, .cls-7, .cls-8, .cls-9, .cls-12 {
        fill: none;
      }

      .cls-1, .cls-3, .cls-6, .cls-7, .cls-12 {
        stroke: #231815;
      }

      .cls-1, .cls-4, .cls-8, .cls-10 {
        stroke-width: 2px;
      }

      .cls-2 {
        stroke: #040000;
      }

      .cls-2, .cls-5, .cls-13 {
        stroke-width: 3px;
      }

      .cls-3 {
        opacity: .15;
      }

      .cls-14, .cls-10 {
        fill: #094;
      }

      .cls-14, .cls-15, .cls-16, .cls-17 {
        stroke-width: 0px;
      }

      .cls-4, .cls-9, .cls-10, .cls-11 {
        stroke: #094;
      }

      .cls-5, .cls-8 {
        stroke: #e60012;
      }

      .cls-6 {
        stroke-dasharray: 0 0 6.07 6.07;
      }

      .cls-7 {
        stroke-dasharray: 0 0 5.93 5.93;
      }

      .cls-11, .cls-15 {
        fill: #fff;
      }

      .cls-18 {
        opacity: .36;
      }

      .cls-16 {
        fill: #231815;
      }

      .cls-13 {
        fill: #5bc4f0;
        stroke: #5bc4f0;
      }

      .cls-17 {
        fill: #040000;
      }
    </style>
  </defs>
  <g id="_圆_直线" data-name="圆+直线">
    <g>
      <line class="cls-2" x1="554.54" y1="242.61" x2="0" y2="242.61"/>
      <polygon class="cls-17" points="549.79 235.64 575.81 242.61 549.79 249.58 549.79 235.64"/>
    </g>
    <path class="cls-16" d="M588.59,249.56l4.89-7.47-4.43-6.85h3.38l2.87,4.6,2.81-4.6h3.35l-4.45,6.95,4.89,7.36h-3.49l-3.17-4.95-3.18,4.95h-3.47Z"/>
    <circle class="cls-1" cx="885.76" cy="243.89" r="188.9"/>
    <g class="cls-18">
      <g>
        <line class="cls-12" x1="648.67" y1="243.89" x2="651.67" y2="243.89"/>
        <line class="cls-6" x1="657.73" y1="243.89" x2="1115.74" y2="243.89"/>
        <line class="cls-12" x1="1118.78" y1="243.89" x2="1121.78" y2="243.89"/>
        <polygon class="cls-16" points="1118.46 247.98 1117.78 247.24 1121.39 243.89 1117.78 240.53 1118.46 239.8 1122.86 243.89 1118.46 247.98"/>
      </g>
    </g>
    <g class="cls-18">
      <g>
        <line class="cls-12" x1="885.76" y1="1.29" x2="885.76" y2="4.29"/>
        <line class="cls-7" x1="885.76" y1="10.22" x2="885.76" y2="481.6"/>
        <line class="cls-12" x1="885.76" y1="484.56" x2="885.76" y2="487.56"/>
        <polygon class="cls-16" points="881.67 4.61 882.41 5.29 885.76 1.68 889.12 5.29 889.85 4.61 885.76 .21 881.67 4.61"/>
      </g>
    </g>
    <circle class="cls-3" cx="885.76" cy="243.89" r="226.68"/>
    <circle class="cls-3" cx="885.76" cy="243.89" r="151.12"/>
    <g>
      <line class="cls-1" x1="497.57" y1="233.55" x2="497.57" y2="186.16"/>
      <polygon class="cls-16" points="502.76 190.1 497.57 187.89 492.39 190.1 497.57 177.81 502.76 190.1"/>
    </g>
    <g>
      <line class="cls-1" x1="497.57" y1="255.62" x2="497.57" y2="303.01"/>
      <polygon class="cls-16" points="492.39 299.08 497.57 301.28 502.76 299.08 497.57 311.36 492.39 299.08"/>
    </g>
    <g>
      <path class="cls-16" d="M489.63,164.74v-3.72h-3.75v-2.57h3.75v-3.72h2.5v3.72h3.76v2.57h-3.76v3.72h-2.5Z"/>
      <path class="cls-16" d="M501.94,166.8v-6.03l-5.24-8.29h3.39l3.37,5.66,3.3-5.66h3.33l-5.26,8.31v6.01h-2.88Z"/>
    </g>
    <g>
      <path class="cls-16" d="M485.31,334.49v-2.05h11.12v2.05h-11.12Z"/>
      <path class="cls-16" d="M501.68,338.65v-6.03l-5.24-8.29h3.39l3.37,5.66,3.3-5.66h3.33l-5.26,8.31v6.01h-2.88Z"/>
    </g>
  </g>
  <g id="_轨迹" data-name="轨迹">
    <polyline class="cls-5" points="13.28 242.61 13.28 185.92 145 216.26 145 268.96 112 299.3 112 185.92 244 216.26 244 268.96 211.28 299.3 211.28 185.92 343 216.26 343 268.96 310.28 299.3 310.28 185.92 442 216.26 442 242.61"/>
    <g>
      <circle class="cls-13" cx="13.47" cy="185.87" r="2.3"/>
      <circle class="cls-13" cx="112" cy="185.87" r="2.3"/>
      <circle class="cls-13" cx="211.74" cy="185.87" r="2.3"/>
      <circle class="cls-13" cx="310.28" cy="185.87" r="2.3"/>
    </g>
    <circle class="cls-13" cx="112" cy="298.87" r="2.3"/>
    <circle class="cls-13" cx="211.74" cy="298.87" r="2.3"/>
    <circle class="cls-13" cx="310.28" cy="298.87" r="2.3"/>
    <polyline class="cls-8" points="885.53 54.98 885.53 17.2 956.73 48.53 943.75 83.22 924 97.64 943.56 24.64 1005.01 73.69 983.77 104.02 961.22 112.92 999.55 46.53 1044.89 110.25 1016.75 134.32 992.68 137.08 1046.54 83.22 1073.94 155.64 1056.53 164.32"/>
    <circle class="cls-13" cx="885.53" cy="15.99" r="2.3"/>
    <circle class="cls-13" cx="943.65" cy="24.52" r="2.3"/>
    <circle class="cls-13" cx="999.81" cy="47.55" r="2.3"/>
    <circle class="cls-13" cx="1046.55" cy="83.22" r="2.3"/>
    <circle class="cls-13" cx="923.81" cy="98.34" r="2.3"/>
    <circle class="cls-13" cx="961.35" cy="113.77" r="2.3"/>
    <circle class="cls-13" cx="992.66" cy="137.39" r="2.3"/>
  </g>
  <g id="_标注" data-name="标注">
    <g>
      <line class="cls-15" x1="1057.08" y1="164.88" x2="1082.72" y2="222.38"/>
      <g>
        <line class="cls-1" x1="1057.08" y1="164.88" x2="1077.67" y2="211.05"/>
        <polygon class="cls-16" points="1072.82 210.17 1082.72 222.38 1080.25 206.86 1072.82 210.17"/>
      </g>
    </g>
    <g>
      <line class="cls-15" x1="1103.71" y1="141.62" x2="1009.35" y2="187.68"/>
      <g>
        <line class="cls-12" x1="1098.14" y1="144.34" x2="1014.92" y2="184.96"/>
        <polygon class="cls-16" points="1096 143.12 1103.71 141.62 1097.79 146.77 1096 143.12"/>
        <polygon class="cls-16" points="1015.28 182.53 1009.35 187.68 1017.06 186.18 1015.28 182.53"/>
      </g>
    </g>
    <g>
      <path class="cls-9" d="M896.57,44.25c8.39-.94,19.27-.62,29.62,4.49"/>
      <polygon class="cls-14" points="899.01 46.89 887.84 45.76 898.07 41.15 899.01 46.89"/>
      <polygon class="cls-14" points="922.94 50.28 933.7 53.45 925.97 45.32 922.94 50.28"/>
    </g>
    <path class="cls-14" d="M913.08,39.8c-.49.42-.96.71-1.41.88-.45.17-.94.26-1.45.26-.85,0-1.51-.21-1.97-.63-.46-.42-.69-.95-.69-1.6,0-.38.09-.73.26-1.04.17-.31.4-.57.68-.76.28-.19.6-.33.95-.43.26-.07.65-.13,1.17-.2,1.06-.13,1.85-.28,2.35-.45,0-.18,0-.29,0-.34,0-.54-.12-.92-.37-1.13-.34-.3-.84-.45-1.5-.45-.62,0-1.08.11-1.37.33-.3.22-.51.6-.66,1.15l-1.29-.18c.12-.55.31-1,.58-1.34.27-.34.66-.6,1.16-.78.51-.18,1.1-.27,1.77-.27s1.2.08,1.62.23.72.35.92.59c.2.24.33.54.41.9.04.22.07.63.07,1.21v1.76c0,1.23.03,2,.08,2.33.06.32.17.64.33.93h-1.38c-.14-.27-.22-.59-.26-.96ZM912.97,36.86c-.48.2-1.2.36-2.15.5-.54.08-.92.17-1.15.26-.22.1-.4.24-.52.43-.12.19-.18.4-.18.63,0,.35.13.64.4.88.27.23.66.35,1.17.35s.96-.11,1.35-.33c.4-.22.69-.53.87-.91.14-.3.21-.74.21-1.32v-.48Z"/>
    <line class="cls-10" x1="993.12" y1="42.53" x2="1003.7" y2="48.54"/>
    <line class="cls-10" x1="973.88" y1="77.21" x2="984.46" y2="83.22"/>
    <g>
      <line class="cls-14" x1="994.96" y1="46.53" x2="976.68" y2="77.31"/>
      <g>
        <line class="cls-9" x1="991.79" y1="51.87" x2="979.85" y2="71.97"/>
        <polygon class="cls-14" points="989.33 52.02 994.96 46.53 992.83 54.1 989.33 52.02"/>
        <polygon class="cls-14" points="978.81 69.74 976.68 77.31 982.3 71.82 978.81 69.74"/>
      </g>
    </g>
    <g>
      <path class="cls-14" d="M967.07,58.47h-1.22v-10.74h1.32v3.83c.56-.7,1.27-1.05,2.13-1.05.48,0,.93.1,1.36.29.43.19.78.46,1.05.81.28.35.49.77.65,1.26s.23,1.02.23,1.58c0,1.33-.33,2.36-.99,3.09-.66.73-1.45,1.09-2.37,1.09s-1.64-.38-2.16-1.15v.97ZM967.06,54.52c0,.93.13,1.61.38,2.02.42.68.98,1.02,1.68,1.02.58,0,1.07-.25,1.49-.75.42-.5.63-1.25.63-2.24s-.2-1.77-.6-2.25c-.4-.48-.89-.73-1.46-.73s-1.07.25-1.49.75c-.42.5-.63,1.22-.63,2.17Z"/>
      <path class="cls-14" d="M973.21,58.65l3.11-11.1h1.05l-3.11,11.1h-1.06Z"/>
      <path class="cls-14" d="M984.93,57.2v1.27h-7.1c0-.32.04-.62.15-.92.18-.48.47-.96.87-1.43.4-.47.97-1.01,1.73-1.63,1.17-.96,1.96-1.71,2.37-2.27.41-.56.62-1.09.62-1.59s-.19-.96-.56-1.32c-.37-.36-.86-.54-1.46-.54-.63,0-1.14.19-1.52.57s-.57.91-.58,1.58l-1.36-.14c.09-1.01.44-1.78,1.05-2.31.61-.53,1.42-.79,2.44-.79s1.85.29,2.45.86c.6.57.9,1.28.9,2.12,0,.43-.09.85-.26,1.27s-.47.85-.88,1.31c-.41.46-1.08,1.09-2.03,1.89-.79.66-1.3,1.11-1.52,1.35-.22.24-.41.48-.56.71h5.27Z"/>
    </g>
    <g>
      <path class="cls-16" d="M1084.53,237.86l4.89-7.47-4.43-6.85h3.38l2.87,4.6,2.81-4.6h3.35l-4.45,6.95,4.89,7.36h-3.49l-3.17-4.95-3.18,4.95h-3.47Z"/>
      <path class="cls-16" d="M1104.21,231.2h-1.6v-3.09c0-.65-.03-1.08-.1-1.27s-.18-.34-.33-.45c-.15-.11-.34-.16-.56-.16-.28,0-.53.08-.75.23-.22.15-.37.35-.45.6-.08.25-.12.71-.12,1.39v2.74h-1.6v-6.05h1.49v.89c.53-.68,1.19-1.02,1.99-1.02.35,0,.67.06.97.19.29.13.51.29.66.49.15.2.25.42.31.67.06.25.09.61.09,1.08v3.76Z"/>
    </g>
    <g>
      <path class="cls-16" d="M1110.55,144.11v-3.72h-3.75v-2.57h3.75v-3.72h2.5v3.72h3.76v2.57h-3.76v3.72h-2.5Z"/>
      <path class="cls-16" d="M1122.86,146.17v-6.03l-5.24-8.29h3.39l3.37,5.66,3.3-5.66h3.33l-5.26,8.31v6.01h-2.88Z"/>
      <path class="cls-16" d="M1137.32,139.51h-1.6v-3.09c0-.65-.03-1.08-.1-1.27s-.18-.34-.33-.45c-.15-.11-.34-.16-.55-.16-.28,0-.53.08-.75.23-.22.15-.37.35-.45.6-.08.25-.12.71-.12,1.39v2.74h-1.6v-6.05h1.49v.89c.53-.68,1.19-1.02,1.99-1.02.35,0,.68.06.97.19.29.13.51.29.66.49.15.2.25.42.31.67.06.25.09.61.09,1.08v3.76Z"/>
    </g>
    <g>
      <path class="cls-16" d="M978.07,199.4v-2.05h11.12v2.05h-11.12Z"/>
      <path class="cls-16" d="M994.45,203.56v-6.03l-5.24-8.29h3.39l3.37,5.66,3.3-5.66h3.33l-5.26,8.31v6.01h-2.88Z"/>
      <path class="cls-16" d="M1008.91,196.9h-1.6v-3.09c0-.65-.03-1.08-.1-1.27s-.18-.34-.33-.45c-.15-.11-.34-.16-.56-.16-.28,0-.53.08-.75.23-.22.15-.37.35-.45.6-.08.25-.12.71-.12,1.39v2.74h-1.6v-6.05h1.49v.89c.53-.68,1.19-1.02,1.99-1.02.35,0,.67.06.97.19.29.13.51.29.66.49.15.2.25.42.31.67.06.25.09.61.09,1.08v3.76Z"/>
    </g>
    <path class="cls-14" d="M195.17,238.4h-1.22v-10.74h1.32v3.83c.56-.7,1.27-1.05,2.13-1.05.48,0,.93.1,1.36.29.43.19.78.46,1.05.81.28.35.49.77.65,1.26s.23,1.02.23,1.58c0,1.33-.33,2.36-.99,3.09-.66.73-1.45,1.09-2.37,1.09s-1.64-.38-2.16-1.15v.97ZM195.16,234.45c0,.93.13,1.61.38,2.02.42.68.98,1.02,1.68,1.02.58,0,1.07-.25,1.49-.75.42-.5.63-1.25.63-2.24s-.2-1.77-.6-2.25c-.4-.48-.89-.73-1.46-.73s-1.07.25-1.49.75c-.42.5-.63,1.22-.63,2.17Z"/>
    <path class="cls-14" d="M77.94,228.15v-.98c-.49.77-1.22,1.16-2.18,1.16-.62,0-1.19-.17-1.71-.51-.52-.34-.92-.82-1.21-1.43-.29-.61-.43-1.32-.43-2.11s.13-1.48.39-2.11c.26-.63.65-1.12,1.16-1.45.52-.34,1.1-.5,1.74-.5.47,0,.89.1,1.25.3.37.2.66.46.89.77v-3.85h1.31v10.74h-1.22ZM73.77,224.27c0,1,.21,1.74.63,2.23.42.49.92.74,1.49.74s1.07-.24,1.47-.71c.4-.47.6-1.19.6-2.16,0-1.06-.21-1.85-.62-2.34s-.92-.75-1.52-.75-1.08.24-1.47.72-.59,1.23-.59,2.26Z"/>
    <line class="cls-11" x1="13.19" y1="242.02" x2="13.19" y2="265.18"/>
    <line class="cls-11" x1="112.01" y1="242.02" x2="112.01" y2="265.18"/>
    <g>
      <line class="cls-9" x1="22.97" y1="256.71" x2="101.85" y2="256.71"/>
      <polygon class="cls-14" points="24.95 259.62 14.11 256.71 24.95 253.81 24.95 259.62"/>
      <polygon class="cls-14" points="99.87 259.62 110.71 256.71 99.87 253.81 99.87 259.62"/>
    </g>
    <line class="cls-11" x1="190.13" y1="182.73" x2="215.16" y2="182.73"/>
    <line class="cls-11" x1="190.13" y1="302.49" x2="215.16" y2="302.49"/>
    <g>
      <line class="cls-9" x1="204.25" y1="193.26" x2="204.25" y2="292.37"/>
      <polygon class="cls-14" points="201.34 195.24 204.25 184.4 207.16 195.24 201.34 195.24"/>
      <polygon class="cls-14" points="201.34 290.38 204.25 301.23 207.16 290.38 201.34 290.38"/>
    </g>
    <line class="cls-11" x1="13.28" y1="219.48" x2="13.28" y2="242.02"/>
    <line class="cls-11" x1="144.9" y1="219.1" x2="144.9" y2="244.15"/>
    <g>
      <line class="cls-9" x1="23.06" y1="231.05" x2="134.56" y2="231.05"/>
      <polygon class="cls-14" points="25.04 233.95 14.2 231.05 25.04 228.14 25.04 233.95"/>
      <polygon class="cls-14" points="132.58 233.95 143.42 231.05 132.58 228.14 132.58 233.95"/>
    </g>
    <path class="cls-14" d="M63.57,267.22c-.49.42-.96.71-1.41.88-.45.17-.94.26-1.45.26-.85,0-1.51-.21-1.97-.63-.46-.42-.69-.95-.69-1.6,0-.38.09-.73.26-1.04.17-.31.4-.57.68-.76.28-.19.6-.33.95-.43.26-.07.65-.13,1.17-.2,1.06-.13,1.85-.28,2.35-.45,0-.18,0-.29,0-.34,0-.54-.12-.92-.37-1.13-.34-.3-.84-.45-1.5-.45-.62,0-1.08.11-1.37.33-.3.22-.51.6-.66,1.15l-1.29-.18c.12-.55.31-1,.58-1.34.27-.34.66-.6,1.16-.78.51-.18,1.1-.27,1.77-.27s1.2.08,1.62.23.72.35.92.59c.2.24.33.54.41.9.04.22.07.63.07,1.21v1.76c0,1.23.03,2,.08,2.33.06.32.17.64.33.93h-1.38c-.14-.27-.22-.59-.26-.96ZM63.46,264.28c-.48.2-1.2.36-2.15.5-.54.08-.93.17-1.15.26-.22.1-.4.24-.52.43-.12.19-.18.4-.18.63,0,.35.13.64.4.88.27.23.66.35,1.17.35s.96-.11,1.35-.33c.4-.22.69-.53.87-.91.14-.3.21-.74.21-1.32v-.48Z"/>
    <line class="cls-4" x1="885.76" y1="38.58" x2="885.76" y2="72.06"/>
    <line class="cls-4" x1="937.98" y1="45.54" x2="933.7" y2="61.37"/>
    <g>
      <path class="cls-9" d="M896.02,65.7c9.53,5.65,23.93,10.96,41.99,7.03"/>
      <polygon class="cls-14" points="896.08 69.17 888.71 60.7 899.32 64.35 896.08 69.17"/>
      <polygon class="cls-14" points="936.86 75.98 946.52 70.27 935.3 70.38 936.86 75.98"/>
    </g>
    <path class="cls-14" d="M913.59,88.35v-.98c-.49.77-1.22,1.16-2.17,1.16-.62,0-1.19-.17-1.71-.51-.52-.34-.92-.82-1.21-1.43-.29-.61-.43-1.32-.43-2.11s.13-1.48.39-2.11c.26-.63.65-1.12,1.16-1.45.52-.34,1.1-.5,1.74-.5.47,0,.89.1,1.25.3.37.2.66.46.89.77v-3.85h1.31v10.74h-1.22ZM909.42,84.47c0,1,.21,1.74.63,2.23.42.49.92.74,1.49.74s1.07-.24,1.47-.71c.4-.47.6-1.19.6-2.16,0-1.06-.21-1.85-.62-2.34s-.92-.75-1.52-.75-1.08.24-1.47.72c-.39.48-.59,1.23-.59,2.26Z"/>
    <circle class="cls-16" cx="1056.95" cy="164.39" r="3.97"/>
    <line class="cls-4" x1="950.85" y1="64.26" x2="946.14" y2="76.84"/>
  </g>
</svg>