<?xml version="1.0" encoding="UTF-8"?>
<svg xmlns="http://www.w3.org/2000/svg" viewBox="0 0 552.92 213.06">
  <defs>
    <style>
      .cls-1 {
        stroke: #6fba2f;
      }

      .cls-1, .cls-2, .cls-3 {
        stroke-width: 2px;
      }

      .cls-1, .cls-2, .cls-3, .cls-4 {
        fill: none;
        stroke-miterlimit: 10;
      }

      .cls-2 {
        stroke: #49c0eb;
      }

      .cls-3 {
        stroke: #ee7426;
      }

      .cls-5 {
        opacity: .58;
      }

      .cls-4 {
        stroke: #040000;
      }

      .cls-6 {
        fill: #231815;
      }

      .cls-6, .cls-7 {
        stroke-width: 0px;
      }

      .cls-7 {
        fill: #040000;
      }
    </style>
  </defs>
  <g id="_图层_4" data-name="图层 4">
    <g>
      <line class="cls-4" x1="6.68" y1="152.7" x2="266.88" y2="152.7"/>
      <polygon class="cls-7" points="265.3 155.02 273.97 152.7 265.3 150.37 265.3 155.02"/>
    </g>
    <g class="cls-5">
      <path class="cls-1" d="M8.5,151.9c6.74-36.35,17.43-59.85,29.47-59.85,12.08,0,22.8,23.64,29.53,60.18"/>
      <path class="cls-1" d="M67.5,152.22c6.74,36.35,17.43,59.85,29.47,59.85,12.08,0,22.8-23.64,29.53-60.18"/>
    </g>
    <g class="cls-5">
      <path class="cls-1" d="M126.5,151.9c6.74-36.35,17.43-59.85,29.47-59.85,12.08,0,22.8,23.64,29.53,60.18"/>
      <path class="cls-1" d="M185.5,152.22c6.74,36.35,17.43,59.85,29.47,59.85,12.08,0,22.8-23.64,29.53-60.18"/>
    </g>
    <path class="cls-6" d="M280.29,160.37l4.89-7.47-4.43-6.85h3.38l2.87,4.6,2.81-4.6h3.35l-4.45,6.95,4.89,7.36h-3.49l-3.17-4.95-3.18,4.95h-3.47Z"/>
    <g>
      <line class="cls-4" x1="6.68" y1="153.16" x2="6.68" y2="54.74"/>
      <polygon class="cls-7" points="9 56.33 6.68 47.66 4.36 56.33 9 56.33"/>
    </g>
    <path class="cls-6" d="M5.24,36.35v-6.03L0,22.03h3.39l3.37,5.66,3.3-5.66h3.33l-5.26,8.31v6.01h-2.88Z"/>
  </g>
  <g id="_横角为正" data-name="横角为正">
    <path class="cls-3" d="M8.5,151.9c2.23-30.79,1.39-55.46,11.44-58.42,11.04-3.25,30.88,20.29,47.56,58.75"/>
    <path class="cls-3" d="M126.5,151.9c2.23-30.79,1.39-55.46,11.44-58.42,11.04-3.25,30.88,20.29,47.56,58.75"/>
    <path class="cls-3" d="M244.5,152.57c-2.23,30.79-1.39,55.46-11.44,58.42-11.04,3.25-30.88-20.29-47.56-58.75"/>
    <path class="cls-3" d="M126.5,151.55v1.02c-2.23,30.79-1.39,55.46-11.44,58.42-11.04,3.25-30.88-20.29-47.56-58.75"/>
  </g>
  <g id="_横角为负" data-name="横角为负">
    <path class="cls-2" d="M67.5,151.33c-2.23-30.79-1.39-55.46-11.44-58.42-11.04-3.25-30.88,20.29-47.56,58.75"/>
    <path class="cls-2" d="M67.5,150.93c2.23,30.79,1.39,55.46,11.44,58.42,11.04,3.25,30.88-20.29,47.56-58.75"/>
    <path class="cls-2" d="M185.27,150.8c-2.23-30.79-1.39-55.46-11.44-58.42-11.04-3.25-30.88,20.29-47.56,58.75"/>
    <path class="cls-2" d="M185.27,150.4c2.23,30.79,1.39,55.46,11.44,58.42,10.82,3.18,30.07-19.34,46.54-56.42"/>
  </g>
</svg>