<?xml version="1.0" encoding="UTF-8"?>
<svg xmlns="http://www.w3.org/2000/svg" viewBox="0 0 1143.25 487.56">
  <defs>
    <style>
      .cls-1, .cls-2, .cls-3, .cls-4, .cls-5, .cls-6, .cls-7, .cls-8, .cls-9, .cls-10, .cls-11, .cls-12, .cls-13 {
        stroke-miterlimit: 10;
      }

      .cls-1, .cls-2, .cls-3, .cls-5, .cls-6, .cls-7, .cls-8, .cls-9, .cls-12 {
        fill: none;
      }

      .cls-1, .cls-3, .cls-4, .cls-6, .cls-7, .cls-12 {
        stroke: #231815;
      }

      .cls-1, .cls-4, .cls-5, .cls-8, .cls-10 {
        stroke-width: 2px;
      }

      .cls-2 {
        stroke: #040000;
      }

      .cls-2, .cls-13 {
        stroke-width: 3px;
      }

      .cls-3 {
        opacity: .15;
      }

      .cls-14, .cls-10 {
        fill: #094;
      }

      .cls-14, .cls-15, .cls-16, .cls-17 {
        stroke-width: 0px;
      }

      .cls-4, .cls-11, .cls-15 {
        fill: #fff;
      }

      .cls-5, .cls-9, .cls-10, .cls-11 {
        stroke: #094;
      }

      .cls-6 {
        stroke-dasharray: 0 0 6.07 6.07;
      }

      .cls-7 {
        stroke-dasharray: 0 0 5.93 5.93;
      }

      .cls-8 {
        stroke: #e60012;
      }

      .cls-18 {
        opacity: .36;
      }

      .cls-16 {
        fill: #231815;
      }

      .cls-13 {
        fill: #5bc4f0;
        stroke: #5bc4f0;
      }

      .cls-17 {
        fill: #040000;
      }
    </style>
  </defs>
  <g id="Z字-3圆_直线" data-name="Z字-3圆+直线">
    <g>
      <line class="cls-2" x1="0" y1="242.61" x2="541.27" y2="242.61"/>
      <polygon class="cls-17" points="536.51 249.58 562.53 242.61 536.51 235.64 536.51 249.58"/>
    </g>
    <path class="cls-16" d="M575.31,249.56l4.89-7.47-4.43-6.85h3.38l2.87,4.6,2.81-4.6h3.35l-4.45,6.95,4.89,7.36h-3.49l-3.17-4.95-3.18,4.95h-3.47Z"/>
    <polyline class="cls-8" points="1.32 242.33 30.79 182.49 87.59 302.23 148.79 182.49 207.79 302.49 266.79 182.49 267.15 181.74"/>
    <polyline class="cls-8" points="324.19 303.33 266.79 182.5 266.35 181.56"/>
    <line class="cls-8" x1="323.94" y1="303.93" x2="353.4" y2="243.49"/>
    <circle class="cls-4" cx="872.48" cy="243.89" r="188.9"/>
    <g class="cls-18">
      <g>
        <line class="cls-12" x1="635.39" y1="243.89" x2="638.39" y2="243.89"/>
        <line class="cls-6" x1="644.45" y1="243.89" x2="1102.46" y2="243.89"/>
        <line class="cls-12" x1="1105.5" y1="243.89" x2="1108.5" y2="243.89"/>
        <polygon class="cls-16" points="1105.18 247.98 1104.5 247.24 1108.11 243.89 1104.5 240.53 1105.18 239.8 1109.58 243.89 1105.18 247.98"/>
      </g>
    </g>
    <g class="cls-18">
      <g>
        <line class="cls-12" x1="872.48" y1="1.29" x2="872.48" y2="4.29"/>
        <line class="cls-7" x1="872.48" y1="10.22" x2="872.48" y2="481.6"/>
        <line class="cls-12" x1="872.48" y1="484.56" x2="872.48" y2="487.56"/>
        <polygon class="cls-16" points="868.4 4.61 869.13 5.29 872.48 1.68 875.84 5.29 876.57 4.61 872.48 .21 868.4 4.61"/>
      </g>
    </g>
    <circle class="cls-3" cx="872.48" cy="243.89" r="226.68"/>
    <circle class="cls-3" cx="872.48" cy="243.89" r="151.12"/>
    <g>
      <line class="cls-1" x1="484.29" y1="233.55" x2="484.29" y2="186.16"/>
      <polygon class="cls-16" points="489.48 190.1 484.29 187.89 479.11 190.1 484.29 177.81 489.48 190.1"/>
    </g>
    <g>
      <line class="cls-1" x1="484.29" y1="255.62" x2="484.29" y2="303.01"/>
      <polygon class="cls-16" points="479.11 299.08 484.29 301.28 489.48 299.08 484.29 311.36 479.11 299.08"/>
    </g>
    <g>
      <path class="cls-16" d="M476.35,164.74v-3.72h-3.75v-2.57h3.75v-3.72h2.5v3.72h3.76v2.57h-3.76v3.72h-2.5Z"/>
      <path class="cls-16" d="M488.66,166.8v-6.03l-5.24-8.29h3.39l3.37,5.66,3.3-5.66h3.33l-5.26,8.31v6.01h-2.88Z"/>
    </g>
    <g>
      <path class="cls-16" d="M472.03,334.49v-2.05h11.12v2.05h-11.12Z"/>
      <path class="cls-16" d="M488.4,338.65v-6.03l-5.24-8.29h3.39l3.37,5.66,3.3-5.66h3.33l-5.26,8.31v6.01h-2.88Z"/>
    </g>
  </g>
  <g id="Z字-轨迹">
    <polyline class="cls-8" points="872.48 54.98 892.16 18.05 910.72 97.64 968.12 38.31 959.22 120.12 1032.7 83.78 1017.36 122.67"/>
    <circle class="cls-13" cx="968.12" cy="38.31" r="2.3"/>
    <circle class="cls-13" cx="892.33" cy="17.2" r="2.3"/>
    <circle class="cls-13" cx="1033.4" cy="83.06" r="2.3"/>
    <circle class="cls-13" cx="958.91" cy="120.87" r="2.3"/>
    <circle class="cls-13" cx="910.8" cy="97.51" r="2.3"/>
    <circle class="cls-13" cx="30.79" cy="182.28" r="2.3"/>
    <circle class="cls-13" cx="148.91" cy="182.28" r="2.3"/>
    <circle class="cls-13" cx="266.85" cy="182.28" r="2.3"/>
    <circle class="cls-13" cx="87.79" cy="301.28" r="2.3"/>
    <circle class="cls-13" cx="206.91" cy="302.28" r="2.3"/>
    <circle class="cls-13" cx="323.85" cy="301.28" r="2.3"/>
  </g>
  <g id="Z字-标注">
    <g>
      <line class="cls-15" x1="1017.13" y1="122.52" x2="1054.26" y2="173.36"/>
      <g>
        <line class="cls-1" x1="1017.13" y1="122.52" x2="1046.95" y2="163.34"/>
        <polygon class="cls-16" points="1042.03 163.5 1054.26 173.36 1048.6 158.7 1042.03 163.5"/>
      </g>
    </g>
    <g>
      <line class="cls-15" x1="1059.72" y1="87.65" x2="975.37" y2="157.39"/>
      <g>
        <line class="cls-12" x1="1054.94" y1="91.6" x2="980.15" y2="153.44"/>
        <polygon class="cls-16" points="1052.57 90.92 1059.72 87.65 1055.16 94.05 1052.57 90.92"/>
        <polygon class="cls-16" points="979.92 150.99 975.37 157.39 982.51 154.12 979.92 150.99"/>
      </g>
    </g>
    <g>
      <path class="cls-9" d="M882.88,42.51c13.86-2.02,33.86-2.01,52.39,9.63.13.08.27.17.4.26"/>
      <polygon class="cls-14" points="885.36 45.09 874.17 44.15 884.33 39.38 885.36 45.09"/>
      <polygon class="cls-14" points="932.33 53.65 942.82 57.64 935.72 48.94 932.33 53.65"/>
    </g>
    <line class="cls-5" x1="948.56" y1="49.57" x2="940.56" y2="67.17"/>
    <line class="cls-5" x1="872.4" y1="36.53" x2="872.4" y2="54.98"/>
    <path class="cls-14" d="M917.86,38.08c-.49.42-.96.71-1.41.88-.45.17-.94.26-1.45.26-.85,0-1.51-.21-1.97-.63-.46-.42-.69-.95-.69-1.6,0-.38.09-.73.26-1.04.17-.31.4-.57.68-.76.28-.19.6-.33.95-.43.26-.07.65-.13,1.17-.2,1.06-.13,1.85-.28,2.35-.45,0-.18,0-.29,0-.34,0-.54-.12-.92-.37-1.13-.34-.3-.84-.45-1.5-.45-.62,0-1.08.11-1.37.33-.3.22-.51.6-.66,1.15l-1.29-.18c.12-.55.31-1,.58-1.34.27-.34.66-.6,1.17-.78.51-.18,1.1-.27,1.76-.27s1.2.08,1.62.23c.42.16.72.35.92.59.2.24.33.54.41.9.04.22.07.63.07,1.21v1.76c0,1.23.03,2,.08,2.33.06.32.17.64.33.93h-1.38c-.14-.27-.22-.59-.26-.96ZM917.75,35.13c-.48.2-1.2.36-2.15.5-.54.08-.93.17-1.15.26-.22.1-.4.24-.52.43-.12.19-.18.4-.18.63,0,.35.13.64.4.88.27.23.66.35,1.17.35s.96-.11,1.35-.33c.4-.22.69-.53.87-.91.14-.3.21-.74.21-1.32v-.48Z"/>
    <line class="cls-10" x1="914.08" y1="59.58" x2="925.86" y2="62.63"/>
    <line class="cls-10" x1="904.34" y1="96.76" x2="916.12" y2="99.81"/>
    <g>
      <line class="cls-14" x1="916.73" y1="61.66" x2="907.07" y2="96.12"/>
      <g>
        <line class="cls-9" x1="915.06" y1="67.63" x2="908.74" y2="90.15"/>
        <polygon class="cls-14" points="912.73 68.42 916.73 61.66 916.64 69.52 912.73 68.42"/>
        <polygon class="cls-14" points="907.16 88.27 907.07 96.12 911.08 89.36 907.16 88.27"/>
      </g>
    </g>
    <g>
      <path class="cls-14" d="M885.34,83.06h-1.22v-10.74h1.32v3.83c.56-.7,1.27-1.05,2.13-1.05.48,0,.93.1,1.36.29.43.19.78.46,1.05.81.28.35.49.77.65,1.26s.23,1.02.23,1.58c0,1.33-.33,2.36-.99,3.09-.66.73-1.45,1.09-2.37,1.09s-1.64-.38-2.16-1.15v.97ZM885.32,79.11c0,.93.13,1.61.38,2.02.42.68.98,1.02,1.68,1.02.58,0,1.07-.25,1.49-.75.42-.5.63-1.25.63-2.24s-.2-1.77-.6-2.25c-.4-.48-.89-.73-1.46-.73s-1.07.25-1.49.75c-.42.5-.63,1.22-.63,2.17Z"/>
      <path class="cls-14" d="M891.47,83.24l3.11-11.1h1.05l-3.11,11.1h-1.06Z"/>
      <path class="cls-14" d="M903.19,81.79v1.27h-7.1c0-.32.04-.62.15-.92.18-.48.47-.96.87-1.43.4-.47.97-1.01,1.73-1.63,1.17-.96,1.96-1.71,2.37-2.27.41-.56.62-1.09.62-1.59s-.19-.96-.56-1.32c-.37-.36-.86-.54-1.46-.54-.63,0-1.14.19-1.52.57s-.57.91-.58,1.58l-1.36-.14c.09-1.01.44-1.78,1.05-2.31.61-.53,1.42-.79,2.44-.79s1.85.29,2.45.86c.6.57.9,1.28.9,2.12,0,.43-.09.85-.26,1.27s-.47.85-.88,1.31c-.41.46-1.08,1.09-2.03,1.89-.79.66-1.3,1.11-1.52,1.35-.22.24-.41.48-.56.71h5.27Z"/>
    </g>
    <g>
      <path class="cls-16" d="M1057.46,188.89l4.89-7.47-4.43-6.85h3.38l2.87,4.6,2.81-4.6h3.35l-4.45,6.95,4.89,7.36h-3.49l-3.17-4.95-3.18,4.95h-3.47Z"/>
      <path class="cls-16" d="M1077.14,182.23h-1.6v-3.09c0-.65-.03-1.08-.1-1.27s-.18-.34-.33-.45c-.15-.11-.34-.16-.56-.16-.28,0-.53.08-.75.23-.22.15-.37.35-.45.6-.08.25-.12.71-.12,1.39v2.74h-1.6v-6.05h1.49v.89c.53-.68,1.19-1.02,1.99-1.02.35,0,.68.06.97.19s.51.29.66.49c.15.2.25.42.31.67.06.25.09.61.09,1.08v3.76Z"/>
    </g>
    <g>
      <path class="cls-16" d="M1065.97,88.06v-3.72h-3.75v-2.57h3.75v-3.72h2.5v3.72h3.76v2.57h-3.76v3.72h-2.5Z"/>
      <path class="cls-16" d="M1078.28,90.12v-6.03l-5.24-8.29h3.39l3.37,5.66,3.3-5.66h3.33l-5.26,8.31v6.01h-2.88Z"/>
      <path class="cls-16" d="M1092.74,83.46h-1.6v-3.09c0-.65-.03-1.08-.1-1.27s-.18-.34-.33-.45c-.15-.11-.34-.16-.56-.16-.28,0-.53.08-.75.23-.22.15-.37.35-.45.6-.08.25-.12.71-.12,1.39v2.74h-1.6v-6.05h1.49v.89c.53-.68,1.19-1.02,1.99-1.02.35,0,.67.06.97.19.29.13.51.29.66.49.15.2.25.42.31.67.06.25.09.61.09,1.08v3.76Z"/>
    </g>
    <g>
      <path class="cls-16" d="M948.52,170.59v-2.05h11.12v2.05h-11.12Z"/>
      <path class="cls-16" d="M964.9,174.75v-6.03l-5.24-8.29h3.39l3.37,5.66,3.3-5.66h3.33l-5.26,8.31v6.01h-2.88Z"/>
      <path class="cls-16" d="M979.36,168.09h-1.6v-3.09c0-.65-.03-1.08-.1-1.27s-.18-.34-.33-.45c-.15-.11-.34-.16-.56-.16-.28,0-.53.08-.75.23-.22.15-.37.35-.45.6-.08.25-.12.71-.12,1.39v2.74h-1.6v-6.05h1.49v.89c.53-.68,1.19-1.02,1.99-1.02.35,0,.67.06.97.19.29.13.51.29.66.49.15.2.25.42.31.67.06.25.09.61.09,1.08v3.76Z"/>
    </g>
    <path class="cls-14" d="M66.89,338.49c-.49.42-.96.71-1.41.88-.45.17-.94.26-1.45.26-.85,0-1.51-.21-1.97-.63-.46-.42-.69-.95-.69-1.6,0-.38.09-.73.26-1.04.17-.31.4-.57.68-.76.28-.19.6-.33.95-.43.26-.07.65-.13,1.17-.2,1.06-.13,1.85-.28,2.35-.45,0-.18,0-.29,0-.34,0-.54-.12-.92-.37-1.13-.34-.3-.84-.45-1.5-.45-.62,0-1.08.11-1.37.33-.3.22-.51.6-.66,1.15l-1.29-.18c.12-.55.31-1,.58-1.34.27-.34.66-.6,1.16-.78.51-.18,1.1-.27,1.77-.27s1.2.08,1.62.23.72.35.92.59c.2.24.33.54.41.9.04.22.07.63.07,1.21v1.76c0,1.23.03,2,.08,2.33.06.32.17.64.33.93h-1.38c-.14-.27-.22-.59-.26-.96ZM66.78,335.55c-.48.2-1.2.36-2.15.5-.54.08-.93.17-1.15.26-.22.1-.4.24-.52.43-.12.19-.18.4-.18.63,0,.35.13.64.4.88.27.23.66.35,1.17.35s.96-.11,1.35-.33c.4-.22.69-.53.87-.91.14-.3.21-.74.21-1.32v-.48Z"/>
    <path class="cls-14" d="M140.06,259.08h-1.22v-10.74h1.32v3.83c.56-.7,1.27-1.05,2.13-1.05.48,0,.93.1,1.36.29.43.19.78.46,1.05.81.28.35.49.77.65,1.26s.23,1.02.23,1.58c0,1.33-.33,2.36-.99,3.09-.66.73-1.45,1.09-2.37,1.09s-1.64-.38-2.16-1.15v.97ZM140.04,255.13c0,.93.13,1.61.38,2.02.42.68.98,1.02,1.68,1.02.58,0,1.07-.25,1.49-.75.42-.5.63-1.25.63-2.24s-.2-1.77-.6-2.25c-.4-.48-.89-.73-1.46-.73s-1.07.25-1.49.75c-.42.5-.63,1.22-.63,2.17Z"/>
    <line class="cls-11" x1="1.82" y1="242.61" x2="1.82" y2="332.16"/>
    <line class="cls-11" x1="119.82" y1="242.61" x2="119.82" y2="332.16"/>
    <g>
      <line class="cls-9" x1="10.54" y1="322.3" x2="110.72" y2="322.3"/>
      <polygon class="cls-14" points="12.52 325.21 1.68 322.3 12.52 319.4 12.52 325.21"/>
      <polygon class="cls-14" points="108.74 325.21 119.58 322.3 108.74 319.4 108.74 325.21"/>
    </g>
    <line class="cls-11" x1="128.73" y1="180.55" x2="242.98" y2="180.55"/>
    <line class="cls-11" x1="128.73" y1="304.34" x2="242.98" y2="304.34"/>
    <g>
      <line class="cls-9" x1="149.26" y1="190.07" x2="149.26" y2="295.48"/>
      <polygon class="cls-14" points="146.36 192.05 149.26 181.21 152.17 192.05 146.36 192.05"/>
      <polygon class="cls-14" points="146.36 293.5 149.26 304.34 152.17 293.5 146.36 293.5"/>
    </g>
    <circle class="cls-16" cx="1017.13" cy="123.17" r="3.97"/>
  </g>
</svg>