<?xml version="1.0" encoding="UTF-8"?>
<svg xmlns="http://www.w3.org/2000/svg" viewBox="0 0 1032.89 487.56">
  <defs>
    <style>
      .cls-1 {
        stroke-dasharray: 0 0 1 1;
      }

      .cls-1, .cls-2, .cls-3, .cls-4, .cls-5, .cls-6, .cls-7, .cls-8, .cls-9, .cls-10, .cls-11, .cls-12, .cls-13, .cls-14, .cls-15, .cls-16 {
        stroke-miterlimit: 10;
      }

      .cls-1, .cls-2, .cls-3, .cls-4, .cls-5, .cls-6, .cls-7, .cls-8, .cls-10, .cls-11, .cls-12, .cls-13, .cls-14, .cls-15 {
        fill: none;
      }

      .cls-1, .cls-2, .cls-4, .cls-5, .cls-8, .cls-10, .cls-11, .cls-13, .cls-15 {
        stroke: #231815;
      }

      .cls-2, .cls-6, .cls-9, .cls-12 {
        stroke-width: 2px;
      }

      .cls-3 {
        stroke: #040000;
      }

      .cls-3, .cls-7, .cls-16 {
        stroke-width: 3px;
      }

      .cls-4 {
        opacity: .15;
      }

      .cls-5 {
        stroke-dasharray: 0 0 2.95 2.95;
      }

      .cls-17 {
        fill: #094;
      }

      .cls-17, .cls-18, .cls-19, .cls-20 {
        stroke-width: 0px;
      }

      .cls-6, .cls-9, .cls-14 {
        stroke: #094;
      }

      .cls-7, .cls-12 {
        stroke: #e60012;
      }

      .cls-8 {
        stroke-dasharray: 0 0 6.07 6.07;
      }

      .cls-9, .cls-18 {
        fill: #fff;
      }

      .cls-10 {
        stroke-dasharray: 0 0 .99 .99;
      }

      .cls-11 {
        stroke-dasharray: 0 0 5.93 5.93;
      }

      .cls-13 {
        stroke-dasharray: 0 0 1 1;
      }

      .cls-21 {
        opacity: .36;
      }

      .cls-19 {
        fill: #231815;
      }

      .cls-16 {
        fill: #5bc4f0;
        stroke: #5bc4f0;
      }

      .cls-20 {
        fill: #040000;
      }
    </style>
  </defs>
  <g id="_圆_直线" data-name="圆+直线">
    <g>
      <line class="cls-3" x1="473.49" y1="242.61" x2="23.06" y2="242.61"/>
      <polygon class="cls-20" points="468.73 235.64 494.75 242.61 468.73 249.58 468.73 235.64"/>
    </g>
    <path class="cls-19" d="M502.09,249.56l4.89-7.47-4.43-6.85h3.38l2.87,4.6,2.81-4.6h3.35l-4.45,6.95,4.89,7.36h-3.49l-3.17-4.95-3.18,4.95h-3.47Z"/>
    <circle class="cls-2" cx="762.13" cy="243.89" r="188.9"/>
    <g class="cls-21">
      <g>
        <line class="cls-15" x1="525.03" y1="243.89" x2="528.03" y2="243.89"/>
        <line class="cls-8" x1="534.1" y1="243.89" x2="992.11" y2="243.89"/>
        <line class="cls-15" x1="995.14" y1="243.89" x2="998.14" y2="243.89"/>
        <polygon class="cls-19" points="994.83 247.98 994.15 247.24 997.76 243.89 994.15 240.53 994.83 239.8 999.23 243.89 994.83 247.98"/>
      </g>
    </g>
    <g class="cls-21">
      <g>
        <line class="cls-15" x1="762.13" y1="1.29" x2="762.13" y2="4.29"/>
        <line class="cls-11" x1="762.13" y1="10.22" x2="762.13" y2="481.6"/>
        <line class="cls-15" x1="762.13" y1="484.56" x2="762.13" y2="487.56"/>
        <polygon class="cls-19" points="758.04 4.61 758.77 5.29 762.13 1.68 765.48 5.29 766.22 4.61 762.13 .21 758.04 4.61"/>
      </g>
    </g>
    <circle class="cls-4" cx="762.13" cy="243.89" r="226.68"/>
    <circle class="cls-4" cx="762.13" cy="243.89" r="151.12"/>
    <g>
      <line class="cls-2" x1="427.94" y1="233.55" x2="427.94" y2="186.16"/>
      <polygon class="cls-19" points="433.12 190.1 427.94 187.89 422.75 190.1 427.94 177.81 433.12 190.1"/>
    </g>
    <g>
      <line class="cls-2" x1="427.94" y1="255.62" x2="427.94" y2="303.01"/>
      <polygon class="cls-19" points="422.75 299.08 427.94 301.28 433.12 299.08 427.94 311.36 422.75 299.08"/>
    </g>
    <g>
      <path class="cls-19" d="M419.99,164.74v-3.72h-3.75v-2.57h3.75v-3.72h2.5v3.72h3.76v2.57h-3.76v3.72h-2.5Z"/>
      <path class="cls-19" d="M432.31,166.8v-6.03l-5.24-8.29h3.39l3.37,5.66,3.3-5.66h3.33l-5.26,8.31v6.01h-2.88Z"/>
    </g>
    <g>
      <path class="cls-19" d="M415.67,334.49v-2.05h11.12v2.05h-11.12Z"/>
      <path class="cls-19" d="M432.05,338.65v-6.03l-5.24-8.29h3.39l3.37,5.66,3.3-5.66h3.33l-5.26,8.31v6.01h-2.88Z"/>
    </g>
  </g>
  <g id="_轨迹" data-name="轨迹">
    <path class="cls-7" d="M98.64,299.3s64.4-21.27,65.72-113.39"/>
    <path class="cls-7" d="M164.64,185.92s64.4,21.27,65.72,113.39"/>
    <path class="cls-7" d="M33.64,185.92s64.4,21.27,65.72,113.39"/>
    <path class="cls-7" d="M230.8,298.28s64.4-21.27,65.72-113.39"/>
    <circle class="cls-16" cx="165.46" cy="185.92" r="2.3"/>
    <circle class="cls-16" cx="99.64" cy="299.3" r="2.3"/>
    <circle class="cls-16" cx="230.8" cy="299.3" r="2.3"/>
    <path class="cls-7" d="M296.64,185.92s36.16,11.94,54.85,56.69"/>
    <circle class="cls-16" cx="296.2" cy="185.92" r="2.3"/>
    <path class="cls-7" d="M24.88,241.67c6.04-14.81,10.16-33.15,10.49-55.76"/>
    <circle class="cls-16" cx="34.93" cy="185.92" r="2.3"/>
    <path class="cls-12" d="M761.65,54.98s16.83-10.34,20.13-36.69c0,0,24.81,17.16,18.39,77.75,0,0,30.41-2.46,57.59-57.73,0,0,16.95,24.59-8.9,81.82,0,0,36.04,6.08,73.61-36.47,0,0,4.62,42.06-37.12,72.73"/>
    <circle class="cls-16" cx="781.78" cy="18.29" r="2.3"/>
    <circle class="cls-16" cx="857.76" cy="38.31" r="2.3"/>
    <circle class="cls-16" cx="922.47" cy="83.65" r="2.3"/>
    <circle class="cls-16" cx="800.17" cy="97.28" r="2.3"/>
    <circle class="cls-16" cx="849.11" cy="121.06" r="2.3"/>
    <circle class="cls-16" cx="885.36" cy="156.38" r="2.3"/>
  </g>
  <g id="_标注" data-name="标注">
    <g>
      <line class="cls-18" x1="916.44" y1="135.38" x2="952.18" y2="187.2"/>
      <g>
        <line class="cls-2" x1="916.44" y1="135.38" x2="945.14" y2="176.99"/>
        <polygon class="cls-19" points="940.22 177.02 952.18 187.2 946.91 172.4 940.22 177.02"/>
      </g>
    </g>
    <path class="cls-17" d="M842.31,53.53c-.49.42-.96.71-1.41.88-.45.17-.94.26-1.45.26-.85,0-1.51-.21-1.97-.63-.46-.42-.69-.95-.69-1.6,0-.38.09-.73.26-1.04.17-.31.4-.57.68-.76.28-.19.6-.33.95-.43.26-.07.65-.13,1.17-.2,1.06-.13,1.85-.28,2.35-.45,0-.18,0-.29,0-.34,0-.54-.12-.92-.37-1.13-.34-.3-.84-.45-1.5-.45-.62,0-1.08.11-1.37.33-.3.22-.51.6-.66,1.15l-1.29-.18c.12-.55.31-1,.58-1.34.27-.34.66-.6,1.16-.78.51-.18,1.1-.27,1.77-.27s1.2.08,1.62.23.72.35.92.59c.2.24.33.54.41.9.04.22.07.63.07,1.21v1.76c0,1.23.03,2,.08,2.33.06.32.17.64.33.93h-1.38c-.14-.27-.22-.59-.26-.96ZM842.2,50.58c-.48.2-1.2.36-2.15.5-.54.08-.92.17-1.15.26-.22.1-.4.24-.52.43-.12.19-.18.4-.18.63,0,.35.13.64.4.88.27.23.66.35,1.17.35s.96-.11,1.35-.33c.4-.22.69-.53.87-.91.14-.3.21-.74.21-1.32v-.48Z"/>
    <g>
      <path class="cls-17" d="M774.84,76.76h-1.22v-10.74h1.32v3.83c.56-.7,1.27-1.05,2.13-1.05.48,0,.93.1,1.36.29.43.19.78.46,1.05.81.28.35.49.77.65,1.26s.23,1.02.23,1.58c0,1.33-.33,2.36-.99,3.09-.66.73-1.45,1.09-2.37,1.09s-1.64-.38-2.16-1.15v.97ZM774.83,72.82c0,.93.13,1.61.38,2.02.42.68.98,1.02,1.68,1.02.58,0,1.07-.25,1.49-.75.42-.5.63-1.25.63-2.24s-.2-1.77-.6-2.25c-.4-.48-.89-.73-1.46-.73s-1.07.25-1.49.75c-.42.5-.63,1.22-.63,2.17Z"/>
      <path class="cls-17" d="M780.98,76.95l3.11-11.1h1.05l-3.11,11.1h-1.06Z"/>
      <path class="cls-17" d="M792.7,75.49v1.27h-7.1c0-.32.04-.62.15-.92.18-.48.47-.96.87-1.43.4-.47.97-1.01,1.73-1.63,1.17-.96,1.96-1.71,2.37-2.27.41-.56.62-1.09.62-1.59s-.19-.96-.56-1.32c-.37-.36-.86-.54-1.46-.54-.63,0-1.14.19-1.52.57s-.57.91-.58,1.58l-1.36-.14c.09-1.01.44-1.78,1.05-2.31.61-.53,1.42-.79,2.44-.79s1.85.29,2.45.86c.6.57.9,1.28.9,2.12,0,.43-.09.85-.26,1.27s-.47.85-.88,1.31c-.41.46-1.08,1.09-2.03,1.89-.79.66-1.3,1.11-1.52,1.35-.22.24-.41.48-.56.71h5.27Z"/>
    </g>
    <g>
      <path class="cls-19" d="M952.18,204.37l4.89-7.47-4.43-6.85h3.38l2.87,4.6,2.81-4.6h3.35l-4.45,6.95,4.89,7.36h-3.49l-3.17-4.95-3.18,4.95h-3.47Z"/>
      <path class="cls-19" d="M971.86,197.71h-1.6v-3.09c0-.65-.03-1.08-.1-1.27s-.18-.34-.33-.45c-.15-.11-.34-.16-.56-.16-.28,0-.53.08-.75.23-.22.15-.37.35-.45.6-.08.25-.12.71-.12,1.39v2.74h-1.6v-6.05h1.49v.89c.53-.68,1.19-1.02,1.99-1.02.35,0,.67.06.97.19.29.13.51.29.66.49.15.2.25.42.31.67.06.25.09.61.09,1.08v3.76Z"/>
    </g>
    <g>
      <path class="cls-19" d="M968.91,106.62v-3.72h-3.75v-2.57h3.75v-3.72h2.5v3.72h3.76v2.57h-3.76v3.72h-2.5Z"/>
      <path class="cls-19" d="M981.23,108.68v-6.03l-5.24-8.29h3.39l3.37,5.66,3.3-5.66h3.33l-5.26,8.31v6.01h-2.88Z"/>
      <path class="cls-19" d="M995.69,102.02h-1.6v-3.09c0-.65-.03-1.08-.1-1.27s-.18-.34-.33-.45c-.15-.11-.34-.16-.55-.16-.28,0-.53.08-.75.23-.22.15-.37.35-.45.6-.08.25-.12.71-.12,1.39v2.74h-1.6v-6.05h1.49v.89c.53-.68,1.19-1.02,1.99-1.02.35,0,.68.06.97.19.29.13.51.29.66.49.15.2.25.42.31.67.06.25.09.61.09,1.08v3.76Z"/>
    </g>
    <g>
      <path class="cls-19" d="M855.33,176.7v-2.05h11.12v2.05h-11.12Z"/>
      <path class="cls-19" d="M871.71,180.86v-6.03l-5.24-8.29h3.39l3.37,5.66,3.3-5.66h3.33l-5.26,8.31v6.01h-2.88Z"/>
      <path class="cls-19" d="M886.17,174.2h-1.6v-3.09c0-.65-.03-1.08-.1-1.27s-.18-.34-.33-.45c-.15-.11-.34-.16-.56-.16-.28,0-.53.08-.75.23-.22.15-.37.35-.45.6-.08.25-.12.71-.12,1.39v2.74h-1.6v-6.05h1.49v.89c.53-.68,1.19-1.02,1.99-1.02.35,0,.67.06.97.19.29.13.51.29.66.49.15.2.25.42.31.67.06.25.09.61.09,1.08v3.76Z"/>
    </g>
    <g>
      <path class="cls-17" d="M2.2,218.27H.98v-10.74h1.32v3.83c.56-.7,1.27-1.05,2.13-1.05.48,0,.93.1,1.36.29.43.19.78.46,1.05.81.28.35.49.77.65,1.26s.23,1.02.23,1.58c0,1.33-.33,2.36-.99,3.09-.66.73-1.45,1.09-2.37,1.09s-1.64-.38-2.16-1.15v.97ZM2.19,214.33c0,.93.13,1.61.38,2.02.42.68.98,1.02,1.68,1.02.58,0,1.07-.25,1.49-.75.42-.5.63-1.25.63-2.24s-.2-1.77-.6-2.25c-.4-.48-.89-.73-1.46-.73s-1.07.25-1.49.75c-.42.5-.63,1.22-.63,2.17Z"/>
      <path class="cls-17" d="M8.34,218.46l3.11-11.1h1.05l-3.11,11.1h-1.06Z"/>
      <path class="cls-17" d="M20.06,217.01v1.27h-7.1c0-.32.04-.62.15-.92.18-.48.47-.96.87-1.43s.97-1.01,1.73-1.63c1.17-.96,1.96-1.71,2.37-2.27.41-.56.62-1.09.62-1.59s-.19-.96-.56-1.32c-.37-.36-.86-.54-1.46-.54-.63,0-1.14.19-1.52.57s-.57.91-.58,1.58l-1.35-.14c.09-1.01.44-1.78,1.05-2.31.61-.53,1.42-.79,2.44-.79s1.85.29,2.45.86c.6.57.9,1.28.9,2.12,0,.43-.09.85-.26,1.27s-.47.85-.88,1.31c-.41.46-1.08,1.09-2.03,1.89-.79.66-1.3,1.11-1.52,1.35-.22.24-.41.48-.56.71h5.27Z"/>
    </g>
    <path class="cls-17" d="M266.85,259.7v-7.78h1.19v1.18c.3-.55.58-.92.84-1.09.26-.18.54-.26.85-.26.44,0,.9.14,1.36.42l-.45,1.22c-.32-.19-.64-.29-.97-.29-.29,0-.55.09-.78.26-.23.17-.39.41-.49.72-.15.47-.22.98-.22,1.54v4.07h-1.32Z"/>
    <line class="cls-9" x1="99.64" y1="298.28" x2="99.64" y2="321.44"/>
    <g>
      <line class="cls-15" x1="230.8" y1="298.28" x2="231.56" y2="296.99"/>
      <line class="cls-5" x1="233.04" y1="294.43" x2="294.7" y2="188.49"/>
      <line class="cls-15" x1="295.44" y1="187.21" x2="296.2" y2="185.92"/>
    </g>
    <line class="cls-6" x1="230.8" y1="321.44" x2="230.8" y2="298.28"/>
    <g>
      <line class="cls-14" x1="109.43" y1="312.97" x2="220.21" y2="312.97"/>
      <polygon class="cls-17" points="111.41 315.88 100.57 312.97 111.41 310.07 111.41 315.88"/>
      <polygon class="cls-17" points="218.23 315.88 229.07 312.97 218.23 310.07 218.23 315.88"/>
    </g>
    <line class="cls-9" x1="15.39" y1="183.62" x2="40.42" y2="183.62"/>
    <line class="cls-9" x1="15.39" y1="242.61" x2="40.42" y2="242.61"/>
    <g>
      <line class="cls-14" x1="23.51" y1="193.37" x2="23.51" y2="233.14"/>
      <polygon class="cls-17" points="20.6 195.36 23.51 184.52 26.41 195.36 20.6 195.36"/>
      <polygon class="cls-17" points="20.6 231.15 23.51 242 26.41 231.15 20.6 231.15"/>
    </g>
    <line class="cls-9" x1="268" y1="234.26" x2="259.19" y2="249.6"/>
    <path class="cls-17" d="M167.98,325.68c-.49.42-.96.71-1.41.88-.45.17-.94.26-1.45.26-.85,0-1.51-.21-1.97-.63-.46-.42-.69-.95-.69-1.6,0-.38.09-.73.26-1.04.17-.31.4-.57.68-.76.28-.19.6-.33.95-.43.26-.07.65-.13,1.17-.2,1.06-.13,1.85-.28,2.35-.45,0-.18,0-.29,0-.34,0-.54-.12-.92-.37-1.13-.34-.3-.84-.45-1.5-.45-.62,0-1.08.11-1.37.33-.3.22-.51.6-.66,1.15l-1.29-.18c.12-.55.31-1,.58-1.34.27-.34.66-.6,1.16-.78.51-.18,1.1-.27,1.77-.27s1.2.08,1.62.23.72.35.92.59c.2.24.33.54.41.9.04.22.07.63.07,1.21v1.76c0,1.23.03,2,.08,2.33.06.32.17.64.33.93h-1.38c-.14-.27-.22-.59-.26-.96ZM167.87,322.74c-.48.2-1.2.36-2.15.5-.54.08-.93.17-1.15.26-.22.1-.4.24-.52.43-.12.19-.18.4-.18.63,0,.35.13.64.4.88.27.23.66.35,1.17.35s.96-.11,1.35-.33c.4-.22.69-.53.87-.91.14-.3.21-.74.21-1.32v-.48Z"/>
    <g>
      <path class="cls-14" d="M869.17,77.5c-6.17-8.98-18.59-19.73-44.15-21.37-1.44-.09-2.88-.15-4.33-.19"/>
      <polygon class="cls-17" points="870.3 74.99 872.69 83.65 866.29 77.35 870.3 74.99"/>
      <polygon class="cls-17" points="822.26 53.67 813.59 56 822.26 58.32 822.26 53.67"/>
    </g>
    <circle class="cls-19" cx="916.44" cy="135.11" r="3.97"/>
    <g>
      <line class="cls-14" x1="268.95" y1="245.85" x2="275.32" y2="249.74"/>
      <polygon class="cls-17" points="269.07 248.31 263.66 242.61 271.2 244.84 269.07 248.31"/>
      <polygon class="cls-17" points="273.07 250.75 280.61 252.98 275.2 247.29 273.07 250.75"/>
    </g>
    <line class="cls-9" x1="286.45" y1="243.61" x2="277" y2="261.33"/>
    <g>
      <line class="cls-15" x1="810.28" y1="60.65" x2="810.15" y2="61.13"/>
      <line class="cls-13" x1="809.89" y1="62.1" x2="800.72" y2="96.32"/>
      <line class="cls-15" x1="800.59" y1="96.81" x2="800.46" y2="97.29"/>
    </g>
    <line class="cls-6" x1="814.39" y1="45.32" x2="810.38" y2="60.27"/>
    <line class="cls-6" x1="879.83" y1="75.78" x2="870.78" y2="88.88"/>
    <path class="cls-17" d="M880.8,114.09v-7.78h1.19v1.18c.3-.55.58-.92.84-1.09.26-.18.54-.26.85-.26.44,0,.9.14,1.35.42l-.45,1.22c-.32-.19-.64-.29-.97-.29-.29,0-.55.09-.78.26-.23.17-.39.41-.49.72-.15.47-.22.98-.22,1.54v4.07h-1.32Z"/>
    <g>
      <line class="cls-14" x1="887.78" y1="103.75" x2="889.74" y2="107.91"/>
      <polygon class="cls-17" points="887.16 104.81 886.47 100.95 889 103.95 887.16 104.81"/>
      <polygon class="cls-17" points="888.52 107.72 891.06 110.72 890.36 106.85 888.52 107.72"/>
    </g>
    <line class="cls-6" x1="896.58" y1="108.68" x2="886.47" y2="114.09"/>
    <line class="cls-6" x1="891.04" y1="98.42" x2="880.74" y2="103.47"/>
    <g>
      <line class="cls-2" x1="888.68" y1="154.15" x2="950.48" y2="110.61"/>
      <polygon class="cls-19" points="893.29 155.87 878.54 161.29 888.6 149.22 893.29 155.87"/>
      <polygon class="cls-19" points="950.56 115.53 960.62 103.47 945.87 108.88 950.56 115.53"/>
    </g>
    <line class="cls-6" x1="806.58" y1="99.21" x2="788.26" y2="93.69"/>
    <line class="cls-6" x1="816.76" y1="62.32" x2="794.91" y2="56.7"/>
    <g>
      <line class="cls-17" x1="802.13" y1="58.54" x2="793.61" y2="94.98"/>
      <g>
        <line class="cls-14" x1="800.52" y1="65.45" x2="795.22" y2="88.08"/>
        <polygon class="cls-17" points="797.9 66.46 802.13 58.54 802.42 67.52 797.9 66.46"/>
        <polygon class="cls-17" points="793.32 86.01 793.61 94.98 797.85 87.06 793.32 86.01"/>
      </g>
    </g>
    <g>
      <line class="cls-15" x1="920.17" y1="83.65" x2="919.73" y2="83.88"/>
      <line class="cls-1" x1="918.83" y1="84.33" x2="849.75" y2="119.67"/>
      <line class="cls-15" x1="849.31" y1="119.9" x2="848.86" y2="120.12"/>
    </g>
    <g>
      <line class="cls-15" x1="870.78" y1="88.88" x2="870.49" y2="89.29"/>
      <line class="cls-10" x1="869.92" y1="90.1" x2="849.68" y2="118.77"/>
      <line class="cls-15" x1="849.39" y1="119.17" x2="849.11" y2="119.58"/>
    </g>
  </g>
</svg>