<?xml version="1.0" encoding="UTF-8"?>
<svg xmlns="http://www.w3.org/2000/svg" viewBox="0 0 1138.75 487.56">
  <defs>
    <style>
      .cls-1, .cls-2, .cls-3, .cls-4, .cls-5, .cls-6, .cls-7, .cls-8, .cls-9, .cls-10, .cls-11, .cls-12, .cls-13 {
        stroke-miterlimit: 10;
      }

      .cls-1, .cls-2, .cls-3, .cls-5, .cls-6, .cls-7, .cls-8, .cls-9, .cls-10, .cls-13 {
        fill: none;
      }

      .cls-1, .cls-3, .cls-4, .cls-6, .cls-7, .cls-13 {
        stroke: #231815;
      }

      .cls-1, .cls-4, .cls-5, .cls-8, .cls-11 {
        stroke-width: 2px;
      }

      .cls-2 {
        stroke: #040000;
        stroke-width: 3px;
      }

      .cls-3 {
        opacity: .15;
      }

      .cls-14, .cls-11 {
        fill: #094;
      }

      .cls-14, .cls-15, .cls-16, .cls-17 {
        stroke-width: 0px;
      }

      .cls-4, .cls-12, .cls-15 {
        fill: #fff;
      }

      .cls-5, .cls-10, .cls-11, .cls-12 {
        stroke: #094;
      }

      .cls-6 {
        stroke-dasharray: 0 0 6.07 6.07;
      }

      .cls-7 {
        stroke-dasharray: 0 0 5.93 5.93;
      }

      .cls-8, .cls-9 {
        stroke: #e60012;
      }

      .cls-18 {
        opacity: .36;
      }

      .cls-16 {
        fill: #231815;
      }

      .cls-17 {
        fill: #040000;
      }
    </style>
  </defs>
  <g id="_正弦3" data-name="正弦3">
    <g>
      <line class="cls-2" y1="244.13" x2="536.77" y2="244.13"/>
      <polygon class="cls-17" points="532.01 251.1 558.03 244.13 532.01 237.16 532.01 251.1"/>
    </g>
  </g>
  <g id="_正弦2" data-name="正弦2">
    <g>
      <path class="cls-8" d="M1.82,243.33c6.74-36.35,17.43-59.85,29.47-59.85,12.08,0,22.8,23.64,29.53,60.18"/>
      <path class="cls-8" d="M60.82,243.65c6.74,36.35,17.43,59.85,29.47,59.85,12.08,0,22.8-23.64,29.53-60.18"/>
    </g>
    <g>
      <path class="cls-8" d="M119.82,243.33c6.74-36.35,17.43-59.85,29.47-59.85,12.08,0,22.8,23.64,29.53,60.18"/>
      <path class="cls-8" d="M178.82,243.65c6.74,36.35,17.43,59.85,29.47,59.85,12.08,0,22.8-23.64,29.53-60.18"/>
    </g>
    <path class="cls-8" d="M293.29,183.49c12.08,0,22.8,23.64,29.53,60.18"/>
    <line class="cls-9" x1="267.29" y1="183.49" x2="293.29" y2="183.49"/>
    <path class="cls-8" d="M237.82,243.33c6.74-36.35,17.43-59.85,29.47-59.85"/>
    <path class="cls-8" d="M378.47,304.86c12.08,0,22.8-23.64,29.53-60.18"/>
    <line class="cls-9" x1="352.47" y1="304.86" x2="378.47" y2="304.86"/>
    <path class="cls-8" d="M323,245.01c6.74,36.35,17.43,59.85,29.47,59.85"/>
    <g>
      <line class="cls-1" x1="479.8" y1="233.55" x2="479.8" y2="186.16"/>
      <polygon class="cls-16" points="484.98 190.1 479.8 187.89 474.61 190.1 479.8 177.81 484.98 190.1"/>
    </g>
    <g>
      <line class="cls-1" x1="479.8" y1="255.62" x2="479.8" y2="303.01"/>
      <polygon class="cls-16" points="474.61 299.08 479.8 301.28 484.98 299.08 479.8 311.36 474.61 299.08"/>
    </g>
  </g>
  <g id="_正弦1" data-name="正弦1">
    <line class="cls-12" x1="1.82" y1="333.68" x2="1.82" y2="244.13"/>
    <line class="cls-12" x1="119.82" y1="244.13" x2="119.82" y2="333.68"/>
    <g>
      <line class="cls-10" x1="10.54" y1="323.82" x2="110.72" y2="323.82"/>
      <polygon class="cls-14" points="12.52 326.72 1.68 323.82 12.52 320.91 12.52 326.72"/>
      <polygon class="cls-14" points="108.74 326.72 119.58 323.82 108.74 320.91 108.74 326.72"/>
    </g>
    <line class="cls-12" x1="128.73" y1="182.06" x2="242.98" y2="182.06"/>
    <line class="cls-12" x1="128.73" y1="304.86" x2="242.98" y2="304.86"/>
    <g>
      <line class="cls-10" x1="149.26" y1="191.59" x2="149.26" y2="296"/>
      <polygon class="cls-14" points="146.36 193.57 149.26 182.73 152.17 193.57 146.36 193.57"/>
      <polygon class="cls-14" points="146.36 294.02 149.26 304.86 152.17 294.02 146.36 294.02"/>
    </g>
    <line class="cls-12" x1="266.84" y1="164.52" x2="266.84" y2="183.37"/>
    <line class="cls-12" x1="293.77" y1="164.23" x2="293.77" y2="183.08"/>
    <g>
      <line class="cls-10" x1="275.67" y1="173.22" x2="284.86" y2="173.22"/>
      <polygon class="cls-14" points="277.65 176.12 266.81 173.22 277.65 170.31 277.65 176.12"/>
      <polygon class="cls-14" points="282.88 176.12 293.72 173.22 282.88 170.31 282.88 176.12"/>
    </g>
    <line class="cls-12" x1="351.87" y1="304.86" x2="351.87" y2="323.71"/>
    <line class="cls-12" x1="378.94" y1="305.44" x2="378.94" y2="324.29"/>
    <g>
      <line class="cls-10" x1="360.7" y1="314.43" x2="370.02" y2="314.43"/>
      <polygon class="cls-14" points="362.68 317.33 351.84 314.43 362.68 311.52 362.68 317.33"/>
      <polygon class="cls-14" points="368.04 317.33 378.88 314.43 368.04 311.52 368.04 317.33"/>
    </g>
    <path class="cls-14" d="M66.89,340.01c-.49.42-.96.71-1.41.88-.45.17-.94.26-1.45.26-.85,0-1.51-.21-1.97-.63-.46-.42-.69-.95-.69-1.6,0-.38.09-.73.26-1.04.17-.31.4-.57.68-.76.28-.19.6-.33.95-.43.26-.07.65-.13,1.17-.2,1.06-.13,1.85-.28,2.35-.45,0-.18,0-.29,0-.34,0-.54-.12-.92-.37-1.13-.34-.3-.84-.45-1.5-.45-.62,0-1.08.11-1.37.33-.3.22-.51.6-.66,1.15l-1.29-.18c.12-.55.31-1,.58-1.34.27-.34.66-.6,1.16-.78.51-.18,1.1-.27,1.77-.27s1.2.08,1.62.23.72.35.92.59c.2.24.33.54.41.9.04.22.07.63.07,1.21v1.76c0,1.23.03,2,.08,2.33.06.32.17.64.33.93h-1.38c-.14-.27-.22-.59-.26-.96ZM66.78,337.06c-.48.2-1.2.36-2.15.5-.54.08-.93.17-1.15.26-.22.1-.4.24-.52.43-.12.19-.18.4-.18.63,0,.35.13.64.4.88.27.23.66.35,1.17.35s.96-.11,1.35-.33c.4-.22.69-.53.87-.91.14-.3.21-.74.21-1.32v-.48Z"/>
    <path class="cls-14" d="M140.06,260.6h-1.22v-10.74h1.32v3.83c.56-.7,1.27-1.05,2.13-1.05.48,0,.93.1,1.36.29.43.19.78.46,1.05.81.28.35.49.77.65,1.26s.23,1.02.23,1.58c0,1.33-.33,2.36-.99,3.09-.66.73-1.45,1.09-2.37,1.09s-1.64-.38-2.16-1.15v.97ZM140.04,256.65c0,.93.13,1.61.38,2.02.42.68.98,1.02,1.68,1.02.58,0,1.07-.25,1.49-.75.42-.5.63-1.25.63-2.24s-.2-1.77-.6-2.25c-.4-.48-.89-.73-1.46-.73s-1.07.25-1.49.75c-.42.5-.63,1.22-.63,2.17Z"/>
    <path class="cls-14" d="M283.5,161.38l1.3.17c-.14.89-.5,1.59-1.09,2.1-.58.5-1.3.76-2.15.76-1.06,0-1.92-.35-2.57-1.04-.65-.7-.97-1.69-.97-2.99,0-.84.14-1.58.42-2.21s.7-1.1,1.27-1.42c.57-.32,1.19-.47,1.86-.47.85,0,1.54.21,2.07.64.54.43.88,1.03,1.03,1.82l-1.28.2c-.12-.52-.34-.92-.65-1.18s-.68-.4-1.12-.4c-.66,0-1.2.24-1.62.71-.42.48-.62,1.23-.62,2.26s.2,1.8.6,2.28c.4.47.92.71,1.57.71.52,0,.95-.16,1.3-.48.35-.32.57-.8.66-1.46Z"/>
    <path class="cls-14" d="M368.66,328.07l1.3.17c-.14.89-.5,1.59-1.09,2.1-.58.5-1.3.76-2.15.76-1.06,0-1.92-.35-2.57-1.04-.65-.7-.97-1.69-.97-2.99,0-.84.14-1.58.42-2.21s.7-1.1,1.27-1.42c.57-.32,1.19-.47,1.86-.47.84,0,1.54.21,2.07.64.54.43.88,1.03,1.03,1.82l-1.28.2c-.12-.52-.34-.92-.65-1.18-.31-.26-.68-.4-1.12-.4-.66,0-1.2.24-1.62.71-.42.48-.62,1.23-.62,2.26s.2,1.8.6,2.28c.4.47.92.71,1.57.71.52,0,.95-.16,1.3-.48.35-.32.57-.8.66-1.46Z"/>
    <path class="cls-16" d="M571.31,251.07l4.89-7.47-4.43-6.85h3.38l2.87,4.6,2.81-4.6h3.35l-4.45,6.95,4.89,7.36h-3.49l-3.17-4.95-3.18,4.95h-3.47Z"/>
    <g>
      <path class="cls-16" d="M471.85,164.74v-3.72h-3.75v-2.57h3.75v-3.72h2.5v3.72h3.76v2.57h-3.76v3.72h-2.5Z"/>
      <path class="cls-16" d="M484.17,166.8v-6.03l-5.24-8.29h3.39l3.37,5.66,3.3-5.66h3.33l-5.26,8.31v6.01h-2.88Z"/>
    </g>
    <g>
      <path class="cls-16" d="M467.53,334.49v-2.05h11.12v2.05h-11.12Z"/>
      <path class="cls-16" d="M483.91,338.65v-6.03l-5.24-8.29h3.39l3.37,5.66,3.3-5.66h3.33l-5.26,8.31v6.01h-2.88Z"/>
    </g>
  </g>
  <g id="Z字-3圆_直线" data-name="Z字-3圆+直线">
    <circle class="cls-4" cx="867.99" cy="243.89" r="188.9"/>
    <g class="cls-18">
      <g>
        <line class="cls-13" x1="630.89" y1="243.89" x2="633.89" y2="243.89"/>
        <line class="cls-6" x1="639.96" y1="243.89" x2="1097.97" y2="243.89"/>
        <line class="cls-13" x1="1101" y1="243.89" x2="1104" y2="243.89"/>
        <polygon class="cls-16" points="1100.69 247.98 1100.01 247.24 1103.62 243.89 1100.01 240.53 1100.69 239.8 1105.09 243.89 1100.69 247.98"/>
      </g>
    </g>
    <g class="cls-18">
      <g>
        <line class="cls-13" x1="867.99" y1="1.29" x2="867.99" y2="4.29"/>
        <line class="cls-7" x1="867.99" y1="10.22" x2="867.99" y2="481.6"/>
        <line class="cls-13" x1="867.99" y1="484.56" x2="867.99" y2="487.56"/>
        <polygon class="cls-16" points="863.9 4.61 864.63 5.29 867.99 1.68 871.35 5.29 872.08 4.61 867.99 .21 863.9 4.61"/>
      </g>
    </g>
    <path class="cls-3" d="M1041.61,98.13c33.12,39.41,53.06,90.25,53.06,145.75,0,125.19-101.49,226.68-226.68,226.68s-226.68-101.49-226.68-226.68S742.8,17.2,867.99,17.2c62.75,0,119.54,25.49,160.59,66.69"/>
    <path class="cls-3" d="M1028.57,83.89c4.54,4.56,8.89,9.31,13.03,14.24"/>
    <path class="cls-3" d="M1010.09,192.32c5.84,16.09,9.02,33.45,9.02,51.56,0,83.46-67.66,151.12-151.12,151.12s-151.12-67.66-151.12-151.12,67.66-151.12,151.12-151.12c55.38,0,103.8,29.79,130.12,74.21"/>
    <path class="cls-3" d="M998.1,166.98c4.74,8,8.76,16.48,11.98,25.35"/>
  </g>
  <g id="Z字-轨迹">
    <path class="cls-8" d="M1009.76,192.02c1.54,4.18,13.44,2.1,39.7,3.83.43.03.87.06,1.3.09"/>
    <path class="cls-8" d="M1041.84,98.14c4.09,5.46-10.33,25.36-19.24,37.67-15.23,21.02-25.73,28.82-23.59,33.06"/>
    <path class="cls-8" d="M867.99,53.87c4.13-12.98,12.56-36.65,19.67-35.82,7.2.83,10.96,26.52,12.89,39.74,3.66,25.07,1.31,38.28,5.76,39.54,4.54,1.29,9.74-11.66,26.55-32.03,9.05-10.97,24.71-29.95,30.77-26.99,5.64,2.76,1.31,23.75-2.31,41.31-5.34,25.9-11.28,37.2-7.4,39.94,3.94,2.79,12.8-7,35.46-20.41,14.24-8.42,34.22-20.25,38.96-15.49"/>
    <path class="cls-9" d="M1028.33,83.65c4.7,4.71,9.2,9.63,13.48,14.73"/>
    <path class="cls-9" d="M998.1,166.98c4.74,8,8.76,16.48,11.98,25.35"/>
  </g>
  <g id="Z字-标注">
    <g>
      <line class="cls-15" x1="1051.27" y1="195.34" x2="1062.97" y2="257.2"/>
      <g>
        <line class="cls-1" x1="1051.27" y1="195.34" x2="1060.67" y2="245.01"/>
        <polygon class="cls-16" points="1056.15 243.04 1062.97 257.2 1064.15 241.53 1056.15 243.04"/>
      </g>
    </g>
    <g>
      <line class="cls-15" x1="1104.7" y1="182.14" x2="998.58" y2="208.89"/>
      <g>
        <line class="cls-13" x1="1098.69" y1="183.65" x2="1004.59" y2="207.37"/>
        <polygon class="cls-16" points="1096.85 182.02 1104.7 182.14 1097.84 185.97 1096.85 182.02"/>
        <polygon class="cls-16" points="1005.44 205.06 998.58 208.89 1006.44 209.01 1005.44 205.06"/>
      </g>
    </g>
    <g>
      <path class="cls-10" d="M878.38,42.49c13.08-1.92,31.7-2.06,48.85,7.93"/>
      <polygon class="cls-14" points="880.86 45.07 869.68 44.15 879.82 39.35 880.86 45.07"/>
      <polygon class="cls-14" points="923.92 51.82 934.55 55.42 927.14 46.99 923.92 51.82"/>
    </g>
    <line class="cls-5" x1="939.73" y1="46.75" x2="933.11" y2="64.91"/>
    <line class="cls-5" x1="867.9" y1="36.53" x2="867.9" y2="54.98"/>
    <path class="cls-14" d="M913.36,38.08c-.49.42-.96.71-1.41.88-.45.17-.94.26-1.45.26-.85,0-1.51-.21-1.97-.63-.46-.42-.69-.95-.69-1.6,0-.38.09-.73.26-1.04.17-.31.4-.57.68-.76.28-.19.6-.33.95-.43.26-.07.65-.13,1.17-.2,1.06-.13,1.85-.28,2.35-.45,0-.18,0-.29,0-.34,0-.54-.12-.92-.37-1.13-.34-.3-.84-.45-1.5-.45-.62,0-1.08.11-1.37.33-.3.22-.51.6-.66,1.15l-1.29-.18c.12-.55.31-1,.58-1.34.27-.34.66-.6,1.17-.78.51-.18,1.1-.27,1.76-.27s1.2.08,1.62.23c.42.16.72.35.92.59.2.24.33.54.41.9.04.22.07.63.07,1.21v1.76c0,1.23.03,2,.08,2.33.06.32.17.64.33.93h-1.38c-.14-.27-.22-.59-.26-.96ZM913.25,35.13c-.48.2-1.2.36-2.15.5-.54.08-.93.17-1.15.26-.22.1-.4.24-.52.43-.12.19-.18.4-.18.63,0,.35.13.64.4.88.27.23.66.35,1.17.35s.96-.11,1.35-.33c.4-.22.69-.53.87-.91.14-.3.21-.74.21-1.32v-.48Z"/>
    <line class="cls-11" x1="909.81" y1="59.53" x2="921.59" y2="62.58"/>
    <line class="cls-11" x1="898.86" y1="96.12" x2="910.64" y2="99.17"/>
    <g>
      <line class="cls-14" x1="915.7" y1="61.92" x2="906.43" y2="96.49"/>
      <g>
        <line class="cls-10" x1="914.09" y1="67.91" x2="908.04" y2="90.5"/>
        <polygon class="cls-14" points="911.77 68.72 915.7 61.92 915.7 69.77 911.77 68.72"/>
        <polygon class="cls-14" points="906.43 88.63 906.43 96.49 910.36 89.69 906.43 88.63"/>
      </g>
    </g>
    <g>
      <path class="cls-14" d="M881.99,85.56h-1.22v-10.74h1.32v3.83c.56-.7,1.27-1.05,2.13-1.05.48,0,.93.1,1.36.29.43.19.78.46,1.05.81.28.35.49.77.65,1.26s.23,1.02.23,1.58c0,1.33-.33,2.36-.99,3.09-.66.73-1.45,1.09-2.37,1.09s-1.64-.38-2.16-1.15v.97ZM881.97,81.61c0,.93.13,1.61.38,2.02.42.68.98,1.02,1.68,1.02.58,0,1.07-.25,1.49-.75.42-.5.63-1.25.63-2.24s-.2-1.77-.6-2.25c-.4-.48-.89-.73-1.46-.73s-1.07.25-1.49.75c-.42.5-.63,1.22-.63,2.17Z"/>
      <path class="cls-14" d="M888.13,85.74l3.11-11.1h1.05l-3.11,11.1h-1.06Z"/>
      <path class="cls-14" d="M899.85,84.29v1.27h-7.1c0-.32.04-.62.15-.92.18-.48.47-.96.87-1.43.4-.47.97-1.01,1.73-1.63,1.17-.96,1.96-1.71,2.37-2.27.41-.56.62-1.09.62-1.59s-.19-.96-.56-1.32c-.37-.36-.86-.54-1.46-.54-.63,0-1.14.19-1.52.57s-.57.91-.58,1.58l-1.36-.14c.09-1.01.44-1.78,1.05-2.31.61-.53,1.42-.79,2.44-.79s1.85.29,2.45.86c.6.57.9,1.28.9,2.12,0,.43-.09.85-.26,1.27s-.47.85-.88,1.31c-.41.46-1.08,1.09-2.03,1.89-.79.66-1.3,1.11-1.52,1.35-.22.24-.41.48-.56.71h5.27Z"/>
    </g>
    <g>
      <path class="cls-16" d="M1062.97,276.46l4.89-7.47-4.43-6.85h3.38l2.87,4.6,2.81-4.6h3.35l-4.45,6.95,4.89,7.36h-3.49l-3.17-4.95-3.18,4.95h-3.47Z"/>
      <path class="cls-16" d="M1082.65,269.8h-1.6v-3.09c0-.65-.03-1.08-.1-1.27s-.18-.34-.33-.45c-.15-.11-.34-.16-.55-.16-.28,0-.53.08-.75.23-.22.15-.37.35-.45.6-.08.25-.12.71-.12,1.39v2.74h-1.6v-6.05h1.49v.89c.53-.68,1.19-1.02,1.99-1.02.35,0,.67.06.97.19s.51.29.66.49c.15.2.25.42.31.67.06.25.09.61.09,1.08v3.76Z"/>
    </g>
    <g>
      <path class="cls-16" d="M1111.02,184.84v-3.72h-3.75v-2.57h3.75v-3.72h2.5v3.72h3.76v2.57h-3.76v3.72h-2.5Z"/>
      <path class="cls-16" d="M1123.34,186.9v-6.03l-5.24-8.29h3.39l3.37,5.66,3.3-5.66h3.33l-5.26,8.31v6.01h-2.88Z"/>
      <path class="cls-16" d="M1137.8,180.24h-1.6v-3.09c0-.65-.03-1.08-.1-1.27s-.18-.34-.33-.45c-.15-.11-.34-.16-.55-.16-.28,0-.53.08-.75.23-.22.15-.37.35-.45.6-.08.25-.12.71-.12,1.39v2.74h-1.6v-6.05h1.49v.89c.53-.68,1.19-1.02,1.99-1.02.35,0,.68.06.97.19.29.13.51.29.66.49.15.2.25.42.31.67.06.25.09.61.09,1.08v3.76Z"/>
    </g>
    <g>
      <path class="cls-16" d="M965.19,218.23v-2.05h11.12v2.05h-11.12Z"/>
      <path class="cls-16" d="M981.56,222.39v-6.03l-5.24-8.29h3.39l3.37,5.66,3.3-5.66h3.33l-5.26,8.31v6.01h-2.88Z"/>
      <path class="cls-16" d="M996.03,215.73h-1.6v-3.09c0-.65-.03-1.08-.1-1.27s-.18-.34-.33-.45c-.15-.11-.34-.16-.56-.16-.28,0-.53.08-.75.23-.22.15-.37.35-.45.6-.08.25-.12.71-.12,1.39v2.74h-1.6v-6.05h1.49v.89c.53-.68,1.19-1.02,1.99-1.02.35,0,.67.06.97.19.29.13.51.29.66.49.15.2.25.42.31.67.06.25.09.61.09,1.08v3.76Z"/>
    </g>
    <circle class="cls-16" cx="1050.99" cy="195.93" r="3.97"/>
    <line class="cls-5" x1="1028.57" y1="83.1" x2="1037.64" y2="74.34"/>
    <polyline class="cls-5" points="1042.38 97.9 1050.59 91.01 1051.31 90.41"/>
    <g>
      <path class="cls-10" d="M1038.1,83.15c1.31,1.17,2.78,2.91,4.4,5.43"/>
      <polygon class="cls-14" points="1038.47 85.81 1032.32 80.92 1040.09 82.08 1038.47 85.81"/>
      <polygon class="cls-14" points="1040 88.43 1045.55 93.99 1043.53 86.4 1040 88.43"/>
    </g>
    <path class="cls-14" d="M1049.96,81.04l1.3.17c-.14.89-.5,1.59-1.09,2.1-.58.5-1.3.76-2.15.76-1.06,0-1.92-.35-2.57-1.04-.65-.7-.97-1.69-.97-2.99,0-.84.14-1.58.42-2.21s.7-1.1,1.27-1.42c.57-.32,1.19-.47,1.86-.47.84,0,1.54.21,2.07.64.54.43.88,1.03,1.03,1.82l-1.28.2c-.12-.52-.34-.92-.65-1.18-.31-.26-.68-.4-1.12-.4-.66,0-1.2.24-1.62.71-.42.48-.62,1.23-.62,2.26s.2,1.8.6,2.28c.4.47.92.71,1.57.71.52,0,.95-.16,1.3-.48.35-.32.57-.8.66-1.46Z"/>
    <line class="cls-10" x1="998.58" y1="168.45" x2="989.45" y2="173.68"/>
    <line class="cls-10" x1="1009.76" y1="192.36" x2="1000.83" y2="195.61"/>
    <g>
      <path class="cls-10" d="M1001.44,188.85c-1.38-2.28-2.93-5.82-4.59-11.28"/>
      <polygon class="cls-14" points="1001.91 186.25 1006.19 192.84 999.19 189.28 1001.91 186.25"/>
      <polygon class="cls-14" points="999.22 178.33 995.19 171.58 995.31 179.44 999.22 178.33"/>
    </g>
    <path class="cls-14" d="M993.73,187.54l1.3.17c-.14.89-.5,1.59-1.09,2.1-.58.5-1.3.76-2.15.76-1.06,0-1.92-.35-2.57-1.04-.65-.7-.97-1.69-.97-2.99,0-.84.14-1.58.42-2.21s.7-1.1,1.27-1.42c.57-.32,1.19-.47,1.86-.47.84,0,1.54.21,2.07.64.54.43.88,1.03,1.03,1.82l-1.28.2c-.12-.52-.34-.92-.65-1.18-.31-.26-.68-.4-1.12-.4-.66,0-1.2.24-1.62.71-.42.48-.62,1.23-.62,2.26s.2,1.8.6,2.28c.4.47.92.71,1.57.71.52,0,.95-.16,1.3-.48.35-.32.57-.8.66-1.46Z"/>
  </g>
</svg>