<?xml version="1.0" encoding="UTF-8"?>
<svg xmlns="http://www.w3.org/2000/svg" viewBox="0 0 1001.2 487.56">
  <defs>
    <style>
      .cls-1, .cls-2, .cls-3, .cls-4, .cls-5, .cls-6, .cls-7, .cls-8, .cls-9, .cls-10, .cls-11 {
        stroke-miterlimit: 10;
      }

      .cls-1, .cls-2, .cls-3, .cls-4, .cls-5, .cls-6, .cls-8, .cls-9, .cls-10, .cls-11 {
        fill: none;
      }

      .cls-1, .cls-3, .cls-6, .cls-8, .cls-11 {
        stroke: #231815;
      }

      .cls-1, .cls-4, .cls-7, .cls-9 {
        stroke-width: 2px;
      }

      .cls-2 {
        stroke: #040000;
      }

      .cls-2, .cls-5 {
        stroke-width: 3px;
      }

      .cls-3 {
        opacity: .15;
      }

      .cls-12 {
        fill: #094;
      }

      .cls-12, .cls-13, .cls-14, .cls-15 {
        stroke-width: 0px;
      }

      .cls-4, .cls-7, .cls-10 {
        stroke: #094;
      }

      .cls-5, .cls-9 {
        stroke: #e60012;
      }

      .cls-6 {
        stroke-dasharray: 0 0 6.07 6.07;
      }

      .cls-7, .cls-13 {
        fill: #fff;
      }

      .cls-8 {
        stroke-dasharray: 0 0 5.93 5.93;
      }

      .cls-16 {
        opacity: .36;
      }

      .cls-14 {
        fill: #231815;
      }

      .cls-15 {
        fill: #040000;
      }
    </style>
  </defs>
  <g id="_圆_直线" data-name="圆+直线">
    <g>
      <line class="cls-2" x1="375.22" y1="242.61" x2="1.95" y2="242.61"/>
      <polygon class="cls-15" points="370.46 235.64 396.48 242.61 370.46 249.58 370.46 235.64"/>
    </g>
    <path class="cls-14" d="M402.48,251.71l4.89-7.47-4.43-6.85h3.38l2.87,4.6,2.81-4.6h3.35l-4.45,6.95,4.89,7.36h-3.49l-3.17-4.95-3.18,4.95h-3.47Z"/>
    <circle class="cls-1" cx="730.44" cy="243.89" r="188.9"/>
    <g class="cls-16">
      <g>
        <line class="cls-11" x1="493.34" y1="243.89" x2="496.34" y2="243.89"/>
        <line class="cls-6" x1="502.41" y1="243.89" x2="960.42" y2="243.89"/>
        <line class="cls-11" x1="963.45" y1="243.89" x2="966.45" y2="243.89"/>
        <polygon class="cls-14" points="963.14 247.98 962.45 247.24 966.07 243.89 962.45 240.53 963.14 239.8 967.53 243.89 963.14 247.98"/>
      </g>
    </g>
    <g class="cls-16">
      <g>
        <line class="cls-11" x1="730.44" y1="1.29" x2="730.44" y2="4.29"/>
        <line class="cls-8" x1="730.44" y1="10.22" x2="730.44" y2="481.6"/>
        <line class="cls-11" x1="730.44" y1="484.56" x2="730.44" y2="487.56"/>
        <polygon class="cls-14" points="726.35 4.61 727.08 5.29 730.44 1.68 733.79 5.29 734.53 4.61 730.44 .21 726.35 4.61"/>
      </g>
    </g>
    <circle class="cls-3" cx="730.44" cy="243.89" r="226.68"/>
    <circle class="cls-3" cx="730.44" cy="243.89" r="151.12"/>
    <g>
      <g>
        <line class="cls-1" x1="351.25" y1="233.55" x2="351.25" y2="186.16"/>
        <polygon class="cls-14" points="356.43 190.1 351.25 187.89 346.06 190.1 351.25 177.81 356.43 190.1"/>
      </g>
      <g>
        <line class="cls-1" x1="351.25" y1="255.62" x2="351.25" y2="303.01"/>
        <polygon class="cls-14" points="346.06 299.08 351.25 301.28 356.43 299.08 351.25 311.36 346.06 299.08"/>
      </g>
      <g>
        <path class="cls-14" d="M343.3,164.74v-3.72h-3.75v-2.57h3.75v-3.72h2.5v3.72h3.76v2.57h-3.76v3.72h-2.5Z"/>
        <path class="cls-14" d="M355.61,166.8v-6.03l-5.24-8.29h3.39l3.37,5.66,3.3-5.66h3.33l-5.26,8.31v6.01h-2.88Z"/>
      </g>
      <g>
        <path class="cls-14" d="M338.98,334.49v-2.05h11.12v2.05h-11.12Z"/>
        <path class="cls-14" d="M355.36,338.65v-6.03l-5.24-8.29h3.39l3.37,5.66,3.3-5.66h3.33l-5.26,8.31v6.01h-2.88Z"/>
      </g>
    </g>
  </g>
  <g id="_轨迹" data-name="轨迹">
    <path class="cls-5" d="M104.57,242.61c0-31.31-23.07-56.69-51.53-56.69S1.5,211.3,1.5,242.61"/>
    <path class="cls-5" d="M66.2,242.61c0,30.52,8.6,55.26,19.2,55.26s19.2-24.74,19.2-55.26"/>
    <path class="cls-5" d="M169.27,242.61c0-31.31-23.07-56.69-51.53-56.69s-51.53,25.38-51.53,56.69"/>
    <path class="cls-5" d="M233.97,242.61c0-31.31-23.07-56.69-51.53-56.69s-51.53,25.38-51.53,56.69"/>
    <path class="cls-5" d="M298.67,242.61c0-31.31-23.07-56.69-51.53-56.69s-51.53,25.38-51.53,56.69"/>
    <path class="cls-5" d="M130.9,242.61c0,30.52,8.59,55.26,19.18,55.26s19.18-24.74,19.18-55.26"/>
    <path class="cls-5" d="M195.61,242.61c0,30.52,8.59,55.26,19.18,55.26s19.18-24.74,19.18-55.26"/>
    <path class="cls-9" d="M777.85,60.16c-4.63,20.41-11.33,36.29-14.95,35.47-3.62-.82-2.81-18.04,1.83-38.45"/>
    <path class="cls-9" d="M730.35,54.08c2.73-20.57,15.57-35.84,28.68-34.1,13.11,1.74,21.54,19.82,18.81,40.39"/>
    <path class="cls-9" d="M810.41,71.43c-7.86,19.67-17.48,34.33-21.48,32.73s-.87-18.84,6.99-38.52"/>
    <path class="cls-9" d="M764.63,57.51c6.22-19.89,21.5-32.81,34.12-28.86,12.63,3.95,17.82,23.27,11.6,43.16"/>
    <path class="cls-9" d="M796.1,65.43c9.69-18.45,27.03-28.43,38.75-22.28,11.71,6.15,13.36,26.09,3.67,44.54"/>
    <path class="cls-9" d="M825.9,80.08c12.68-16.74,31.5-23.84,42.05-15.85s8.82,28.03-3.85,44.77"/>
    <path class="cls-9" d="M838.39,87.82c-10.96,17.65-22.63,30.22-26.07,28.08s2.65-18.18,13.61-35.82"/>
  </g>
  <g id="_标注" data-name="标注">
    <g>
      <line class="cls-13" x1="864.04" y1="109.42" x2="908.5" y2="153.99"/>
      <g>
        <line class="cls-1" x1="864.04" y1="109.42" x2="899.74" y2="145.21"/>
        <polygon class="cls-14" points="894.9 146.12 908.5 153.99 900.66 140.37 894.9 146.12"/>
      </g>
    </g>
    <path class="cls-12" d="M741.37,72.14v-7.78h1.19v1.18c.3-.55.58-.92.84-1.09.26-.18.54-.26.85-.26.44,0,.9.14,1.36.42l-.45,1.22c-.32-.19-.64-.29-.97-.29-.29,0-.55.09-.78.26-.23.17-.39.41-.49.72-.15.47-.22.98-.22,1.54v4.07h-1.32Z"/>
    <g>
      <path class="cls-14" d="M911.58,170.5l4.89-7.47-4.43-6.85h3.38l2.87,4.6,2.81-4.6h3.35l-4.45,6.95,4.89,7.36h-3.49l-3.17-4.95-3.18,4.95h-3.47Z"/>
      <path class="cls-14" d="M931.25,163.84h-1.6v-3.09c0-.65-.03-1.08-.1-1.27s-.18-.34-.33-.45c-.15-.11-.34-.16-.55-.16-.28,0-.53.08-.75.23-.22.15-.37.35-.45.6-.08.25-.12.71-.12,1.39v2.74h-1.6v-6.05h1.49v.89c.53-.68,1.19-1.02,1.99-1.02.35,0,.68.06.97.19.29.13.51.29.66.49.15.2.25.42.31.67.06.25.09.61.09,1.08v3.76Z"/>
    </g>
    <g>
      <path class="cls-14" d="M910.12,73.76v-3.72h-3.75v-2.57h3.75v-3.72h2.5v3.72h3.76v2.57h-3.76v3.72h-2.5Z"/>
      <path class="cls-14" d="M922.44,75.82v-6.03l-5.24-8.29h3.39l3.37,5.66,3.3-5.66h3.33l-5.26,8.31v6.01h-2.88Z"/>
      <path class="cls-14" d="M936.9,69.16h-1.6v-3.09c0-.65-.03-1.08-.1-1.27s-.18-.34-.33-.45c-.15-.11-.34-.16-.55-.16-.28,0-.53.08-.75.23-.22.15-.37.35-.45.6-.08.25-.12.71-.12,1.39v2.74h-1.6v-6.05h1.49v.89c.53-.68,1.19-1.02,1.99-1.02.35,0,.68.06.97.19.29.13.51.29.66.49.15.2.25.42.31.67.06.25.09.61.09,1.08v3.76Z"/>
    </g>
    <g>
      <path class="cls-14" d="M808.01,156.24v-2.05h11.12v2.05h-11.12Z"/>
      <path class="cls-14" d="M824.39,160.4v-6.03l-5.24-8.29h3.39l3.37,5.66,3.3-5.66h3.33l-5.26,8.31v6.01h-2.88Z"/>
      <path class="cls-14" d="M838.85,153.74h-1.6v-3.09c0-.65-.03-1.08-.1-1.27s-.18-.34-.33-.45c-.15-.11-.34-.16-.56-.16-.28,0-.53.08-.75.23-.22.15-.37.35-.45.6-.08.25-.12.71-.12,1.39v2.74h-1.6v-6.05h1.49v.89c.53-.68,1.19-1.02,1.99-1.02.35,0,.67.06.97.19.29.13.51.29.66.49.15.2.25.42.31.67.06.25.09.61.09,1.08v3.76Z"/>
    </g>
    <path class="cls-12" d="M186.68,233.55h-1.22v-10.74h1.32v3.83c.56-.7,1.27-1.05,2.13-1.05.48,0,.93.1,1.36.29.43.19.78.46,1.05.81.28.35.49.77.65,1.26s.23,1.02.23,1.58c0,1.33-.33,2.36-.99,3.09-.66.73-1.45,1.09-2.37,1.09s-1.64-.38-2.16-1.15v.97ZM186.66,229.6c0,.93.13,1.61.38,2.02.42.68.98,1.02,1.68,1.02.58,0,1.07-.25,1.49-.75.42-.5.63-1.25.63-2.24s-.2-1.77-.6-2.25c-.4-.48-.89-.73-1.46-.73s-1.07.25-1.49.75c-.42.5-.63,1.22-.63,2.17Z"/>
    <line class="cls-7" x1="1.5" y1="238.37" x2="1.5" y2="257.16"/>
    <line class="cls-4" x1="53.38" y1="257.16" x2="53.38" y2="238.37"/>
    <g>
      <line class="cls-10" x1="10.72" y1="250.06" x2="43.67" y2="250.06"/>
      <polygon class="cls-12" points="12.7 252.97 1.86 250.06 12.7 247.16 12.7 252.97"/>
      <polygon class="cls-12" points="41.68 252.97 52.53 250.06 41.68 247.16 41.68 252.97"/>
    </g>
    <line class="cls-7" x1="138.46" y1="184.77" x2="195.9" y2="184.77"/>
    <line class="cls-7" x1="138.46" y1="299.3" x2="195.9" y2="299.3"/>
    <g>
      <line class="cls-10" x1="180.1" y1="195.37" x2="180.1" y2="289.25"/>
      <polygon class="cls-12" points="177.19 197.35 180.1 186.51 183 197.35 177.19 197.35"/>
      <polygon class="cls-12" points="177.19 287.27 180.1 298.11 183 287.27 177.19 287.27"/>
    </g>
    <path class="cls-12" d="M25.54,264.14v-7.78h1.19v1.18c.3-.55.58-.92.84-1.09.26-.18.54-.26.85-.26.44,0,.9.14,1.35.42l-.45,1.22c-.32-.19-.64-.29-.97-.29-.29,0-.55.09-.78.26-.23.17-.39.41-.49.72-.15.47-.22.98-.22,1.54v4.07h-1.32Z"/>
    <circle class="cls-14" cx="864.23" cy="108.95" r="3.97"/>
    <g>
      <line class="cls-1" x1="840.1" y1="132.86" x2="893.09" y2="78.95"/>
      <polygon class="cls-14" points="844.94 133.73 831.4 141.7 839.14 128.03 844.94 133.73"/>
      <polygon class="cls-14" points="894.05 83.78 901.79 70.1 888.25 78.07 894.05 83.78"/>
    </g>
    <line class="cls-4" x1="850.71" y1="97.93" x2="840.21" y2="90.2"/>
    <line class="cls-4" x1="874.85" y1="68.81" x2="861.26" y2="58.34"/>
    <g>
      <line class="cls-12" x1="868.27" y1="63.4" x2="844.17" y2="92.02"/>
      <g>
        <line class="cls-10" x1="863.71" y1="68.82" x2="848.74" y2="86.6"/>
        <polygon class="cls-12" points="860.91 68.54 868.27 63.4 864.47 71.53 860.91 68.54"/>
        <polygon class="cls-12" points="847.98 83.89 844.17 92.02 851.54 86.89 847.98 83.89"/>
      </g>
    </g>
    <line class="cls-4" x1="730.44" y1="49.04" x2="730.44" y2="67.02"/>
    <line class="cls-4" x1="756.47" y1="50.93" x2="754.35" y2="68.82"/>
    <g>
      <path class="cls-12" d="M860.11,90.2h-1.22v-10.74h1.32v3.83c.56-.7,1.27-1.05,2.13-1.05.48,0,.93.1,1.36.29.43.19.78.46,1.05.81.28.35.49.77.65,1.26s.23,1.02.23,1.58c0,1.33-.33,2.36-.99,3.09-.66.73-1.45,1.09-2.37,1.09s-1.64-.38-2.16-1.15v.97ZM860.09,86.25c0,.93.13,1.61.38,2.02.42.68.98,1.02,1.68,1.02.58,0,1.07-.25,1.49-.75.42-.5.63-1.25.63-2.24s-.2-1.77-.6-2.25c-.4-.48-.89-.73-1.46-.73s-1.07.25-1.49.75c-.42.5-.63,1.22-.63,2.17Z"/>
      <path class="cls-12" d="M866.24,90.38l3.11-11.1h1.05l-3.11,11.1h-1.06Z"/>
      <path class="cls-12" d="M877.96,88.93v1.27h-7.1c0-.32.04-.62.15-.92.18-.48.47-.96.87-1.43.4-.47.97-1.01,1.72-1.63,1.17-.96,1.96-1.71,2.37-2.27.41-.56.62-1.09.62-1.59s-.19-.96-.56-1.32c-.37-.36-.86-.54-1.46-.54-.63,0-1.14.19-1.52.57s-.57.91-.58,1.58l-1.35-.14c.09-1.01.44-1.78,1.05-2.31.61-.53,1.42-.79,2.44-.79s1.85.29,2.45.86c.6.57.9,1.28.9,2.12,0,.43-.09.85-.26,1.27s-.47.85-.88,1.31c-.41.46-1.08,1.09-2.03,1.89-.79.66-1.3,1.11-1.52,1.35-.22.24-.41.48-.56.71h5.27Z"/>
    </g>
    <g>
      <line class="cls-12" x1="731.03" y1="58.76" x2="754.35" y2="60.21"/>
      <g>
        <line class="cls-10" x1="737.22" y1="59.14" x2="748.16" y2="59.82"/>
        <polygon class="cls-12" points="738.48 61.26 731.03 58.76 738.73 57.2 738.48 61.26"/>
        <polygon class="cls-12" points="746.65 61.77 754.35 60.21 746.9 57.71 746.65 61.77"/>
      </g>
    </g>
  </g>
</svg>